<svg width="500" height="500" viewBox="0 0 500 500" fill="none" xmlns="http://www.w3.org/2000/svg">
<path d="M488.946 243.698C483.77 190.11 456.817 136.651 433.563 107.122C335.017 -18.017 137.227 -17.7775 43.0289 139.405C16.4563 183.733 -0.222721 282.298 19.5143 355.196C44.7678 448.502 144.282 484.836 254.95 484.028C358.352 483.23 439.659 438.333 470.099 376.312C489.146 337.463 494.123 297.287 488.946 243.698Z" fill="#37474F"/>
<path d="M43.0289 139.405C16.4563 183.733 -0.222721 282.298 19.5143 355.196C23.6703 370.847 30.3645 385.713 39.3313 399.204V399.204L149.259 335.866L242.848 281.839L462.823 155.033C453.669 136.072 443.296 119.487 433.563 107.132C335.017 -18.017 137.227 -17.7775 43.0289 139.405Z" fill="#263238"/>
<g opacity="0.2">
<path d="M43.199 214.689C44.3212 213.958 45.2553 212.974 45.9255 211.816C46.5957 210.658 46.9832 209.358 47.0564 208.022V200.239C47.0564 197.784 45.3276 196.786 43.199 198.013L17.7457 212.693C16.5764 218.68 15.5371 224.877 14.6377 231.154L43.199 214.689Z" fill="#162530"/>
<path d="M34.125 157.138L43.199 151.899C44.3213 151.169 45.2554 150.185 45.9256 149.027C46.5958 147.868 46.9833 146.569 47.0565 145.233V137.449C47.1159 136.948 47.0274 136.44 46.802 135.988C46.5766 135.536 46.2239 135.159 45.7874 134.905C44.8613 136.388 43.9419 137.888 43.0292 139.405C39.6559 145.105 36.6808 151.03 34.125 157.138V157.138Z" fill="#162530"/>
<path d="M81.9531 88.6709L89.6481 84.2301C90.767 83.5018 91.6984 82.5206 92.3668 81.3659C93.0352 80.2113 93.4219 78.9156 93.4956 77.584C89.5515 81.1033 85.704 84.7989 81.9531 88.6709Z" fill="#162530"/>
<path d="M47.0572 289.922V282.138C47.0572 279.683 45.3283 278.685 43.1997 279.913L11.2207 298.374C11.4339 303.723 11.7937 309.059 12.3 314.381L43.1997 296.568C44.3194 295.84 45.2518 294.859 45.9219 293.704C46.592 292.55 46.9809 291.254 47.0572 289.922V289.922Z" fill="#162530"/>
<path d="M139.915 173.674V165.89C139.915 163.435 138.186 162.437 136.057 163.665L100.381 184.232C99.2597 184.963 98.3271 185.947 97.6586 187.106C96.9901 188.264 96.6045 189.563 96.5332 190.898V198.682C96.5332 201.137 98.2521 202.135 100.381 200.907L136.057 180.34C137.18 179.61 138.114 178.626 138.784 177.467C139.454 176.309 139.841 175.01 139.915 173.674V173.674Z" fill="#162530"/>
<path d="M20.4248 358.339C21.1843 360.904 21.9838 363.439 22.8532 365.924V361.054C22.8532 359.188 21.8439 358.17 20.4248 358.339Z" fill="#162530"/>
<path d="M20.674 267.159C21.795 266.428 22.7276 265.444 23.3961 264.286C24.0646 263.127 24.4501 261.828 24.5215 260.493V252.709C24.5215 250.255 22.8026 249.257 20.674 250.484L11.9997 255.504C11.5467 261.212 11.2369 266.95 11.0703 272.718L20.674 267.159Z" fill="#162530"/>
<path d="M146.771 133.278L182.437 112.711C183.559 111.981 184.494 110.996 185.164 109.838C185.834 108.68 186.221 107.38 186.295 106.045V98.2509C186.295 95.806 184.566 94.8081 182.437 96.0355L146.771 116.603C145.648 117.333 144.714 118.317 144.044 119.475C143.374 120.634 142.986 121.933 142.913 123.269V131.053C142.913 133.508 144.642 134.505 146.771 133.278Z" fill="#162530"/>
<path d="M170.645 262.768L206.322 242.201C207.442 241.472 208.374 240.489 209.043 239.333C209.711 238.176 210.097 236.879 210.169 235.545V227.751C210.169 225.296 208.451 224.309 206.322 225.536L170.645 246.103C169.525 246.832 168.593 247.815 167.924 248.972C167.256 250.128 166.87 251.426 166.798 252.759V260.553C166.798 263.008 168.517 263.996 170.645 262.768Z" fill="#162530"/>
<path d="M77.8264 111.453L113.493 90.8464C114.615 90.116 115.549 89.1319 116.22 87.9737C116.89 86.8155 117.277 85.5159 117.351 84.1802V76.3964C117.351 73.9415 115.622 72.9436 113.493 74.1711L77.8264 94.7782C76.7023 95.5074 75.7663 96.4911 75.0943 97.6493C74.4223 98.8076 74.0333 100.108 73.959 101.444V109.228C73.959 111.683 75.6978 112.681 77.8264 111.453Z" fill="#162530"/>
<path d="M142.913 171.997C142.913 174.452 144.642 175.45 146.771 174.223L182.437 153.656C183.559 152.925 184.494 151.941 185.164 150.783C185.834 149.625 186.221 148.325 186.295 146.989V139.206C186.295 136.751 184.566 135.753 182.437 136.98L146.771 157.548C145.648 158.278 144.714 159.262 144.044 160.42C143.374 161.578 142.986 162.878 142.913 164.214V171.997Z" fill="#162530"/>
<path d="M89.6193 272.309L53.9727 292.876C52.8504 293.606 51.9163 294.59 51.2461 295.748C50.5759 296.907 50.1885 298.206 50.1152 299.542V307.326C50.1152 309.781 51.8441 310.779 53.9727 309.551L89.6493 288.984C90.7703 288.253 91.7029 287.269 92.3714 286.11C93.0399 284.952 93.4254 283.653 93.4968 282.318V274.534C93.4668 272.079 91.7479 271.081 89.6193 272.309Z" fill="#162530"/>
<path d="M232.455 17.6687C221.751 18.4594 211.115 19.9967 200.626 22.2691L193.181 26.5602C192.058 27.2905 191.124 28.2747 190.454 29.4329C189.784 30.5911 189.396 31.8907 189.323 33.2263V41.0201C189.323 43.475 191.052 44.4629 193.181 43.2355L228.857 22.6683C230.637 21.5062 231.92 19.7238 232.455 17.6687Z" fill="#162530"/>
<path d="M117.351 248.019V240.235C117.351 237.78 115.622 236.783 113.493 238.01L77.8264 258.577C76.7023 259.306 75.7663 260.29 75.0943 261.448C74.4223 262.607 74.0333 263.907 73.959 265.243V273.027C73.959 275.482 75.6879 276.48 77.8165 275.252L113.483 254.685C114.607 253.956 115.543 252.972 116.215 251.814C116.887 250.656 117.276 249.356 117.351 248.019V248.019Z" fill="#162530"/>
<path d="M163.759 303.204V295.42C163.759 292.966 162.041 291.968 159.912 293.195L124.235 313.762C123.113 314.493 122.179 315.477 121.509 316.635C120.839 317.793 120.451 319.093 120.378 320.428V328.212C120.378 330.667 122.107 331.665 124.235 330.438L159.902 309.87C161.025 309.141 161.959 308.157 162.63 306.998C163.3 305.84 163.687 304.54 163.759 303.204Z" fill="#162530"/>
<path d="M286 216.934L321.676 196.367C322.799 195.636 323.733 194.652 324.403 193.494C325.073 192.336 325.461 191.036 325.534 189.701V181.917C325.534 179.462 323.805 178.464 321.676 179.691L286 200.259C284.879 200.989 283.946 201.974 283.278 203.132C282.609 204.29 282.224 205.59 282.152 206.925V214.709C282.152 217.163 283.871 218.161 286 216.934Z" fill="#162530"/>
<path d="M309.885 223.57L345.561 203.003C346.682 202.272 347.615 201.288 348.283 200.129C348.952 198.971 349.338 197.672 349.409 196.337V188.553C349.409 186.098 347.69 185.1 345.561 186.328L309.885 206.895C308.763 207.625 307.828 208.609 307.158 209.767C306.488 210.926 306.101 212.225 306.027 213.561V221.345C306.027 223.81 307.806 224.807 309.885 223.57Z" fill="#162530"/>
<path d="M282.152 107.013V114.796C282.152 117.251 283.871 118.249 286 117.022L321.676 96.4547C322.799 95.7244 323.733 94.7402 324.403 93.582C325.073 92.4238 325.461 91.1242 325.534 89.7886V82.0048C325.534 79.5499 323.805 78.552 321.676 79.7794L286 100.347C284.879 101.077 283.946 102.062 283.278 103.22C282.609 104.378 282.224 105.678 282.152 107.013V107.013Z" fill="#162530"/>
<path d="M306.347 32.9668C305.224 33.6972 304.29 34.6813 303.62 35.8395C302.95 36.9977 302.563 38.2973 302.489 39.633V47.4267C302.489 49.8717 304.218 50.8696 306.347 49.6421L334.678 33.2662C328.755 30.9244 322.736 28.8288 316.62 26.9793L306.347 32.9668Z" fill="#162530"/>
<path d="M299.141 72.1952L263.475 92.7624C262.352 93.4927 261.418 94.4769 260.748 95.6351C260.078 96.7932 259.69 98.0928 259.617 99.4285V107.212C259.617 109.667 261.346 110.665 263.475 109.438L299.141 88.8505C300.264 88.1202 301.198 87.136 301.868 85.9778C302.538 84.8196 302.925 83.52 302.999 82.1844V74.4006C302.999 71.9657 301.27 70.9677 299.141 72.1952Z" fill="#162530"/>
<path d="M349.409 106.663C349.409 104.209 347.69 103.211 345.561 104.438L309.885 125.005C308.763 125.736 307.828 126.72 307.158 127.878C306.488 129.036 306.101 130.336 306.027 131.671V139.455C306.027 141.91 307.756 142.908 309.885 141.681L345.561 121.113C346.682 120.382 347.615 119.398 348.283 118.24C348.952 117.082 349.338 115.782 349.409 114.447V106.663Z" fill="#162530"/>
<path d="M438.38 132.919L402.743 153.476C401.621 154.206 400.687 155.19 400.017 156.349C399.346 157.507 398.959 158.806 398.886 160.142V167.936C398.886 170.391 400.605 171.379 402.733 170.151L438.41 149.584C439.532 148.854 440.466 147.87 441.136 146.711C441.807 145.553 442.194 144.254 442.267 142.918V135.134C442.237 132.679 440.508 131.691 438.38 132.919Z" fill="#162530"/>
<path d="M437.87 112.801L425.238 120.105C424.116 120.836 423.182 121.82 422.512 122.978C421.842 124.136 421.454 125.436 421.381 126.772V134.555C421.381 137.01 423.11 138.008 425.238 136.781L446.025 124.806C443.3 120.528 440.582 116.526 437.87 112.801Z" fill="#162530"/>
<path d="M256.589 167.876V160.092C256.589 157.637 254.86 156.639 252.731 157.867L217.055 178.434C215.935 179.166 215.003 180.151 214.335 181.309C213.666 182.467 213.28 183.766 213.207 185.1V192.884C213.207 195.339 214.936 196.337 217.055 195.109L252.731 174.542C253.853 173.812 254.787 172.828 255.458 171.669C256.128 170.511 256.515 169.212 256.589 167.876V167.876Z" fill="#162530"/>
<path d="M391.969 77.7237L356.293 98.2909C355.172 99.0217 354.239 100.006 353.571 101.164C352.902 102.323 352.517 103.622 352.445 104.957V112.741C352.445 115.196 354.164 116.194 356.293 114.966L391.969 94.399C393.092 93.6686 394.026 92.6845 394.696 91.5263C395.366 90.3681 395.754 89.0685 395.827 87.7328V79.949C395.827 77.4942 394.098 76.4962 391.969 77.7237Z" fill="#162530"/>
<path d="M228.857 233.12L193.181 253.687C192.058 254.418 191.124 255.402 190.454 256.56C189.784 257.718 189.396 259.018 189.323 260.353V268.137C189.323 270.592 191.052 271.59 193.181 270.363L228.857 249.795C229.98 249.065 230.914 248.081 231.584 246.923C232.254 245.765 232.642 244.465 232.715 243.129V235.346C232.705 232.891 230.976 231.893 228.857 233.12Z" fill="#162530"/>
<path d="M42.8795 382.16C44.0005 381.429 44.9331 380.445 45.6016 379.286C46.2701 378.128 46.6556 376.829 46.727 375.494V367.71C46.727 365.255 45.0081 364.257 42.8795 365.485L26.3604 375.005C28.2355 379.458 30.3335 383.814 32.6462 388.058L42.8795 382.16Z" fill="#162530"/>
<path d="M374.971 153.496V161.28C374.971 163.735 376.7 164.733 378.828 163.505L414.495 142.938C415.617 142.208 416.551 141.223 417.221 140.065C417.892 138.907 418.279 137.607 418.352 136.272V128.488C418.352 126.033 416.623 125.035 414.495 126.263L378.828 146.83C377.706 147.56 376.772 148.544 376.102 149.702C375.431 150.861 375.044 152.16 374.971 153.496V153.496Z" fill="#162530"/>
</g>
<path opacity="0.15" d="M169.49 404.33C169.092 404.101 168.681 403.895 168.26 403.71L168.41 403.62L98.4104 365.32V339.55L82.6504 348.64V374.41L147.59 409.94C147.73 411.72 148.97 413.49 151.33 414.85C156.33 417.75 164.46 417.75 169.48 414.85C172 413.41 173.25 411.49 173.25 409.58C173.25 407.67 172 405.77 169.49 404.33Z" fill="#162530"/>
<path opacity="0.15" d="M148.94 416.73C148.539 416.5 148.125 416.293 147.7 416.11L147.85 416.02L77.8503 377.72V352L62.1104 361V386.77L127.05 422.3C127.19 424.08 128.42 425.85 130.79 427.21C135.79 430.11 143.92 430.11 148.94 427.21C151.46 425.76 152.71 423.85 152.71 421.94C152.71 420.03 151.46 418.17 148.94 416.73Z" fill="#162530"/>
<path opacity="0.15" d="M387.181 462.28C380.222 458.094 372.708 454.909 364.861 452.82C354.801 449.94 342.861 447.82 334.341 444.33C323.221 439.8 318.241 433.09 317.911 425.65C317.721 421.44 319.511 416.47 328.491 412.02C331.12 410.704 333.91 409.74 336.791 409.15C340.814 408.411 344.936 408.38 348.971 409.06C367.091 411.74 375.641 418.72 382.611 425.69C389.581 432.66 397.321 436.16 411.111 441.69C417.011 444.04 423.291 446.27 428.901 448.69L429.031 448.75C431.847 449.826 434.589 451.086 437.241 452.52C440.901 454.82 444.191 457.27 445.821 460.13C447.451 462.99 447.331 466.31 444.311 469.84C443.312 471.033 442.034 471.96 440.591 472.54C438.758 473.276 436.85 473.806 434.901 474.12C431.069 474.815 427.171 475.08 423.281 474.91C420.198 474.75 417.134 474.332 414.121 473.66C404.503 471.602 395.361 467.74 387.181 462.28Z" fill="#162530"/>
<path d="M95.5599 335.79L100.7 338.79L90.3999 356.58L85.2599 353.58C83.9399 352.82 83.1299 351.19 83.1299 348.87C83.2654 346.345 83.9943 343.887 85.2574 341.696C86.5206 339.505 88.2824 337.643 90.3999 336.26C92.4199 335.13 94.2399 335 95.5599 335.79Z" fill="#455A64"/>
<path d="M88.2695 351.87C88.407 349.344 89.1377 346.886 90.4026 344.695C91.6674 342.504 93.4307 340.642 95.5495 339.26C99.5495 336.94 102.83 338.82 102.83 343.46C102.692 345.986 101.961 348.444 100.697 350.635C99.4317 352.826 97.6684 354.688 95.5495 356.07C91.5295 358.39 88.2695 356.51 88.2695 351.87Z" fill="#263238"/>
<g opacity="0.3">
<path d="M90.3994 350.64C90.496 348.853 91.0127 347.114 91.9075 345.564C92.8023 344.014 94.0501 342.697 95.5494 341.72C98.3894 340.08 100.699 341.41 100.699 344.72C100.603 346.507 100.086 348.246 99.1913 349.796C98.2965 351.346 97.0488 352.663 95.5494 353.64C92.7094 355.25 90.3994 353.92 90.3994 350.64Z" fill="#162530"/>
</g>
<g opacity="0.3">
<path d="M97.0594 342.59C96.9628 344.377 96.4462 346.116 95.5513 347.666C94.6565 349.216 93.4088 350.533 91.9094 351.51C91.4962 351.742 91.0563 351.924 90.5994 352.05C90.4671 351.592 90.3998 351.117 90.3994 350.64C90.496 348.853 91.0127 347.114 91.9075 345.564C92.8023 344.014 94.0501 342.697 95.5494 341.72C95.9653 341.486 96.4087 341.305 96.8694 341.18C96.9932 341.64 97.0571 342.114 97.0594 342.59Z" fill="#162530"/>
</g>
<path d="M91.9099 354L152.24 388.87C152.518 389.03 152.75 389.26 152.911 389.537C153.073 389.814 153.159 390.129 153.16 390.45V411.09H167.72V393.16V388.51C167.721 386.217 167.118 383.965 165.971 381.979C164.825 379.994 163.176 378.345 161.19 377.2L99.1899 341.37C98.6069 341.099 97.9622 340.988 97.3223 341.05C96.6824 341.112 96.0705 341.343 95.5499 341.72C94.0505 342.697 92.8028 344.014 91.9079 345.564C91.0131 347.114 90.4964 348.853 90.3999 350.64C90.3267 351.285 90.4294 351.938 90.697 352.529C90.9645 353.121 91.3871 353.629 91.9199 354H91.9099Z" fill="#455A64"/>
<path d="M167.72 389.2C167.716 388.189 167.592 387.182 167.35 386.2C167.4 386.59 167.56 389.37 162.21 391.15C156.43 393.07 153.16 391.15 153.16 391.15V411.1H167.72V393.85V389.2Z" fill="#37474F"/>
<g opacity="0.3">
<path d="M91.9099 354L152.24 388.87C152.518 389.03 152.75 389.26 152.911 389.537C153.073 389.814 153.159 390.129 153.16 390.45V411.09H158.56V395.68V393.68C158.557 391.383 157.948 389.128 156.797 387.141C155.645 385.154 153.991 383.505 152 382.36L91.1899 347.21C90.7194 348.296 90.4516 349.458 90.3999 350.64C90.3267 351.285 90.4294 351.938 90.697 352.529C90.9645 353.121 91.3871 353.629 91.9199 354H91.9099Z" fill="#162530"/>
</g>
<path d="M170.739 402.79V408.74C170.739 410.27 169.739 411.81 167.739 412.97C165.479 414.119 162.98 414.718 160.444 414.718C157.909 414.718 155.41 414.119 153.149 412.97C151.149 411.81 150.149 410.27 150.149 408.75V402.75H153.219C153.233 403.15 153.329 403.543 153.501 403.904C153.673 404.265 153.918 404.587 154.219 404.85L154.469 405.09C154.748 405.328 155.046 405.542 155.359 405.73C156.956 406.543 158.723 406.967 160.514 406.967C162.306 406.967 164.073 406.543 165.669 405.73C165.985 405.544 166.283 405.33 166.559 405.09L166.809 404.85C167.111 404.587 167.355 404.265 167.527 403.903C167.699 403.542 167.795 403.15 167.809 402.75L170.739 402.79Z" fill="#263238"/>
<path d="M170.739 402.79C170.739 404.31 169.739 405.85 167.739 407.01C165.478 408.154 162.979 408.75 160.444 408.75C157.91 408.75 155.411 408.154 153.149 407.01C151.149 405.85 150.149 404.31 150.149 402.79C150.149 401.27 151.149 399.74 153.149 398.58V402.82C153.163 403.22 153.259 403.613 153.431 403.974C153.603 404.335 153.848 404.657 154.149 404.92L154.399 405.16C154.678 405.398 154.976 405.612 155.289 405.8C156.886 406.613 158.653 407.037 160.444 407.037C162.236 407.037 164.003 406.613 165.599 405.8C165.915 405.614 166.213 405.4 166.489 405.16L166.739 404.92C167.041 404.657 167.285 404.335 167.457 403.973C167.629 403.612 167.725 403.22 167.739 402.82V398.61C169.739 399.74 170.739 401.27 170.739 402.79Z" fill="#455A64"/>
<path d="M74.5404 347.93L79.6804 350.93L69.3904 368.72L64.2403 365.72C62.9203 364.96 62.1104 363.33 62.1104 361.01C62.2478 358.484 62.9785 356.026 64.2434 353.835C65.5082 351.644 67.2715 349.782 69.3904 348.4C71.4004 347.27 73.2304 347.16 74.5404 347.93Z" fill="#455A64"/>
<path d="M67.25 364C67.3874 361.474 68.1182 359.016 69.383 356.825C70.6479 354.634 72.4112 352.772 74.53 351.39C78.53 349.07 81.81 350.95 81.81 355.59C81.6726 358.116 80.9418 360.574 79.677 362.765C78.4121 364.956 76.6488 366.818 74.53 368.2C70.51 370.53 67.25 368.65 67.25 364Z" fill="#263238"/>
<g opacity="0.3">
<path d="M69.3906 362.78C69.4869 360.994 70.0023 359.256 70.8953 357.706C71.7883 356.156 73.0337 354.839 74.5306 353.86C77.3806 352.22 79.6806 353.55 79.6806 356.86C79.5856 358.647 79.0696 360.387 78.1747 361.937C77.2797 363.487 76.0311 364.804 74.5306 365.78C71.6906 367.39 69.3906 366.06 69.3906 362.78Z" fill="#162530"/>
</g>
<g opacity="0.3">
<path d="M76.0006 354.73C75.9056 356.517 75.3896 358.257 74.4946 359.807C73.5996 361.357 72.351 362.674 70.8506 363.65C70.4382 363.884 69.9981 364.065 69.5406 364.19C69.4168 363.73 69.3529 363.256 69.3506 362.78C69.4468 360.994 69.9623 359.256 70.8553 357.706C71.7483 356.156 72.9936 354.839 74.4906 353.86C74.9073 353.628 75.3505 353.446 75.8106 353.32C75.9344 353.78 75.9982 354.254 76.0006 354.73Z" fill="#162530"/>
</g>
<path d="M70.9008 366.12L131.231 401C131.507 401.162 131.736 401.392 131.895 401.669C132.055 401.946 132.139 402.26 132.141 402.58V422.53H146.701V405.3V400.65C146.701 398.358 146.097 396.105 144.951 394.12C143.805 392.135 142.156 390.486 140.171 389.34L78.1708 353.51C77.5861 353.239 76.9398 353.129 76.2983 353.19C75.6569 353.252 75.0433 353.483 74.5208 353.86C73.0238 354.839 71.7785 356.156 70.8855 357.706C69.9925 359.256 69.477 360.994 69.3808 362.78C69.3143 363.419 69.4191 364.064 69.6845 364.65C69.9498 365.235 70.3662 365.739 70.8908 366.11L70.9008 366.12Z" fill="#455A64"/>
<path d="M146.701 400.65C146.697 399.639 146.572 398.632 146.331 397.65C146.391 398.05 146.541 400.82 141.191 402.6C135.411 404.52 132.141 402.6 132.141 402.6V422.55H146.701V405.3V400.65Z" fill="#37474F"/>
<g opacity="0.3">
<path d="M70.9005 366.12L131.231 401C131.506 401.162 131.735 401.392 131.895 401.669C132.055 401.946 132.139 402.26 132.141 402.58V422.53H137.541V407.83V405.83C137.542 403.535 136.939 401.279 135.79 399.292C134.642 397.305 132.99 395.655 131.001 394.51L70.1805 359.35C69.7052 360.434 69.4372 361.597 69.3905 362.78C69.324 363.419 69.4288 364.064 69.6942 364.65C69.9596 365.235 70.3759 365.739 70.9005 366.11V366.12Z" fill="#162530"/>
</g>
<path d="M149.73 414.93V420.88C149.73 422.41 148.73 423.95 146.73 425.11C144.468 426.259 141.967 426.858 139.43 426.858C136.893 426.858 134.392 426.259 132.13 425.11C130.13 423.95 129.13 422.41 129.13 420.89V414.89H132.2C132.212 415.29 132.307 415.684 132.479 416.045C132.651 416.407 132.897 416.728 133.2 416.99C133.275 417.075 133.355 417.155 133.44 417.23C133.716 417.471 134.014 417.685 134.33 417.87C135.928 418.683 137.696 419.107 139.49 419.107C141.283 419.107 143.051 418.683 144.65 417.87C144.964 417.683 145.262 417.469 145.54 417.23C145.63 417.15 145.7 417.07 145.78 416.99C146.078 416.724 146.32 416.401 146.492 416.041C146.663 415.68 146.761 415.289 146.78 414.89L149.73 414.93Z" fill="#263238"/>
<path d="M149.73 414.93C149.73 416.45 148.73 417.99 146.73 419.15C144.467 420.294 141.966 420.89 139.43 420.89C136.894 420.89 134.393 420.294 132.13 419.15C130.13 417.99 129.13 416.45 129.13 414.93C129.13 413.41 130.13 411.88 132.13 410.72V414.96C132.142 415.36 132.237 415.754 132.409 416.115C132.581 416.477 132.827 416.798 133.13 417.06C133.205 417.145 133.285 417.225 133.37 417.3C133.646 417.541 133.944 417.755 134.26 417.94C135.858 418.753 137.626 419.177 139.42 419.177C141.213 419.177 142.981 418.753 144.58 417.94C144.894 417.753 145.192 417.538 145.47 417.3C145.56 417.22 145.63 417.14 145.71 417.06C146.008 416.794 146.25 416.471 146.422 416.111C146.593 415.75 146.691 415.359 146.71 414.96V410.75C148.72 411.88 149.73 413.41 149.73 414.93Z" fill="#455A64"/>
<path d="M241.45 118.88C241.45 87.88 230.56 66.09 212.97 55.93C195.38 45.77 171.07 47.24 144.21 62.75C90.51 93.75 47 169.15 47 231.16C47 262.16 57.89 283.95 75.48 294.1C93.07 304.25 117.38 302.79 144.24 287.29C197.92 256.29 241.45 180.89 241.45 118.88Z" fill="#FF8400"/>
<path opacity="0.95" d="M241.45 118.88C241.45 87.88 230.56 66.09 212.97 55.93C195.38 45.77 171.07 47.24 144.21 62.75C90.51 93.75 47 169.15 47 231.16C47 262.16 57.89 283.95 75.48 294.1C93.07 304.25 117.38 302.79 144.24 287.29C197.92 256.29 241.45 180.89 241.45 118.88Z" fill="white"/>
<g opacity="0.2">
<path d="M89.6698 272.84L65.7598 286.64C68.6528 289.54 71.914 292.048 75.4598 294.1C76.5398 294.73 77.6398 295.31 78.7698 295.84L89.6698 289.55C90.7915 288.818 91.7247 287.831 92.3936 286.67C93.0625 285.51 93.4484 284.208 93.5198 282.87V275.07C93.5198 272.61 91.7998 271.61 89.6698 272.84Z" fill="#FF8400"/>
<path d="M143 131.29C143 133.75 144.73 134.75 146.86 133.52L182.55 112.91C183.673 112.178 184.608 111.192 185.278 110.031C185.949 108.871 186.337 107.568 186.41 106.23V98.42C186.41 95.97 184.68 94.97 182.55 96.2L146.86 116.81C145.737 117.542 144.802 118.528 144.132 119.689C143.461 120.849 143.073 122.152 143 123.49V131.29Z" fill="#FF8400"/>
<path d="M182.55 137.23L146.86 157.84C145.737 158.572 144.802 159.558 144.132 160.719C143.461 161.879 143.073 163.182 143 164.52V172.32C143 174.78 144.73 175.78 146.86 174.55L182.55 153.94C183.673 153.208 184.608 152.222 185.278 151.061C185.949 149.901 186.337 148.598 186.41 147.26V139.46C186.41 137 184.68 136 182.55 137.23Z" fill="#FF8400"/>
<path d="M117.42 84.36V82.54C112.366 87.1631 107.553 92.0428 103 97.16L113.56 91C114.678 90.2721 115.609 89.2922 116.28 88.139C116.95 86.9858 117.341 85.6915 117.42 84.36Z" fill="#FF8400"/>
<path d="M205.799 226.34L170.749 246.58C169.628 247.311 168.696 248.296 168.027 249.455C167.358 250.613 166.972 251.914 166.899 253.25V261.06C166.899 263.52 168.619 264.51 170.749 263.28L181.749 256.92C190.641 247.446 198.688 237.214 205.799 226.34Z" fill="#FF8400"/>
<path d="M217.19 178.77C216.069 179.504 215.137 180.49 214.468 181.651C213.799 182.811 213.413 184.113 213.34 185.45V193.25C213.34 195.71 215.07 196.71 217.19 195.48L224.94 191.01C227.973 184.036 230.643 176.91 232.94 169.66L217.19 178.77Z" fill="#FF8400"/>
<path d="M117.42 248.5V240.7C117.42 238.24 115.69 237.24 113.56 238.47L77.87 259.08C76.7451 259.811 75.8085 260.796 75.136 261.957C74.4636 263.118 74.0744 264.421 74 265.76V273.56C74 276.02 75.73 277.02 77.86 275.79L113.55 255.18C114.675 254.449 115.612 253.464 116.284 252.303C116.956 251.142 117.346 249.839 117.42 248.5Z" fill="#FF8400"/>
<path d="M136.11 164L100.41 184.61C99.2879 185.342 98.3547 186.329 97.6857 187.49C97.0168 188.65 96.631 189.952 96.5596 191.29V199.09C96.5596 201.55 98.2796 202.55 100.41 201.32L136.11 180.71C137.242 179.979 138.185 178.989 138.861 177.823C139.537 176.656 139.928 175.346 140 174V166.2C140 163.77 138.24 162.77 136.11 164Z" fill="#FF8400"/>
</g>
<path opacity="0.2" d="M303.46 266.59L111.46 299.67C97.8 301.92 85.54 299.92 75.46 294.11C57.87 283.94 47 262.16 47 231.16C47 169.16 90.54 93.75 144.24 62.74C171.09 47.24 195.4 45.74 212.99 55.93C223.05 61.74 230.91 71.35 235.8 84.31L303.46 266.59Z" fill="#FF8400"/>
<path opacity="0.2" d="M302.46 266.142L110.46 299.222C96.8 301.472 84.54 299.472 74.46 293.662C56.87 283.492 46 261.712 46 230.712C46 168.712 89.54 93.302 143.24 62.292C170.09 46.792 194.4 45.292 211.99 55.482C222.05 61.292 229.91 70.902 234.8 83.862L302.46 266.142Z" fill="white"/>
<path d="M432.879 261.2L423.129 238.09C418.469 226.18 420.219 210.09 420.219 210.09C425.829 209.99 431.089 211.89 434.729 218.48C438.369 225.07 445.549 248.48 447.189 253.57C448.649 257.948 449.458 262.517 449.589 267.13C449.909 273.01 448.409 283.83 448.019 289.68C447.839 292.39 447.869 294.99 447.879 297.68C447.889 300.37 447.159 303.28 446.779 306.11C446.556 307.448 445.983 308.704 445.119 309.75C444.579 310.42 443.719 310.64 443.209 311.27C442.699 311.9 442.709 312.83 441.929 313.41C441.149 313.99 439.929 313.96 439.199 314.6C438.497 315.358 437.749 316.073 436.959 316.74C436.19 317.123 435.527 317.69 435.029 318.39C434.599 319.08 434.319 320.5 433.329 320.58C432.339 320.66 431.849 319.65 431.629 318.75C431.338 316.964 431.626 315.131 432.449 313.52C433.289 311.84 433.729 309.99 434.769 308.42C435.627 306.866 436.129 305.141 436.239 303.37C436.369 302.18 435.999 300.76 434.669 301.69C433.099 302.78 431.589 304.75 429.469 304.78C427.999 304.78 427.719 303.69 428.369 302.6C429.449 300.805 430.395 298.934 431.199 297C432.019 295 432.629 293 433.509 291.05C433.986 290.031 434.53 289.046 435.139 288.1C436.789 285.45 436.139 282.37 435.849 279.45C435.429 275.4 433.769 266.37 432.879 261.2Z" fill="#FFA8A7"/>
<path d="M419.27 209.17C427.18 209.76 431.6 211.38 435.82 219.17C440.04 226.96 445.67 245.74 446.9 249.61C448.495 254.28 449.503 259.131 449.9 264.05C450.124 266.868 450.144 269.699 449.96 272.52C449.96 272.52 448.89 274.59 442.56 274.59C436.23 274.59 434.36 273.48 434.36 273.48L432.36 261.4L419.36 232.72L419.27 209.17Z" fill="#455A64"/>
<path d="M327 421.14C326.36 420.86 325.83 422.48 326 423.38C326.46 425.99 329 429.45 333.42 432.06C337.84 434.67 347.68 436.44 350.56 437.25C353.44 438.06 357.89 441.1 360.56 442.47C365.46 444.97 369.46 444.68 371.68 443.57C372.068 443.324 372.402 443.001 372.66 442.621C372.918 442.241 373.095 441.812 373.18 441.36C373.76 439.36 373.72 438.93 373.5 438.87L327 421.14Z" fill="#263238"/>
<path d="M374.77 433C374.519 435.487 373.902 437.923 372.94 440.23C372.367 440.785 371.683 441.213 370.933 441.485C370.184 441.757 369.385 441.868 368.59 441.81C364.87 441.81 361.59 440.5 358.17 438.5C355.972 437.118 353.597 436.042 351.11 435.3C348.11 434.51 341.42 433.07 338.46 432.16C335.693 431.31 333.13 429.901 330.93 428.02C329.28 426.49 326.93 423.53 326.81 421.81C327.31 418.07 328.35 416.09 330.81 415.55C333.27 415.01 336.52 415.72 340.87 416.77C342.17 417.09 343.79 417.53 344.5 417.68C347.16 418.22 349.62 418.81 351.61 419.31C353.263 419.862 355.02 420.036 356.75 419.82C357.539 419.742 358.276 419.388 358.83 418.82C359.53 418.05 359.94 416.73 360.76 416.91C360.76 416.91 374.49 424.08 375.63 424.58C376.9 425.09 375.39 426.74 374.77 433Z" fill="#37474F"/>
<path d="M326.81 421.77C327.03 419.17 327.94 415.77 331 415.36C335.58 414.74 340.06 416.61 344.46 417.64L339.12 416.41C332.96 415.12 327.74 413.68 326.81 421.77Z" fill="white"/>
<path d="M343.38 417.14C342.823 417.336 342.315 417.65 341.89 418.06C341.431 418.505 341.025 419.001 340.68 419.54C340.25 420.22 341.11 420.66 341.75 419.92C342.244 419.294 342.811 418.73 343.44 418.24C343.886 417.906 344.433 417.733 344.99 417.75L345.75 417.91C345.74 417.3 344.06 417 343.38 417.14Z" fill="#FAFAFA"/>
<path d="M350.18 418.49C349.944 418.386 349.688 418.332 349.43 418.332C349.172 418.332 348.916 418.386 348.68 418.49C348.071 418.74 347.544 419.156 347.16 419.69C346.671 420.319 346.237 420.988 345.86 421.69C345.65 422.15 346.78 422.5 347.07 422.02C347.445 421.396 347.853 420.792 348.29 420.21C348.52 419.92 349.51 418.85 350.29 418.98L350.65 419.07C350.71 418.91 350.52 418.72 350.38 418.63L350.18 418.49Z" fill="#FAFAFA"/>
<path d="M354.07 419.62C353.721 419.579 353.369 419.656 353.07 419.84C352.685 420.117 352.347 420.455 352.07 420.84C351.61 421.504 351.249 422.232 351 423C350.79 423.61 352 423.81 352.13 423.41C352.444 422.323 353.041 421.34 353.86 420.56C354.225 420.223 354.669 419.983 355.15 419.86C355.15 419.74 355 419.67 354.88 419.65C354.76 419.63 354.25 419.62 354.07 419.62Z" fill="#FAFAFA"/>
<path d="M381 409.26C381 409.26 376.69 422.35 375.37 425.33C374.95 426.33 372.96 426.08 371.86 426.19C370.537 426.245 369.233 426.519 368 427C364.78 428.64 362.75 428.61 362.66 423.88C362.66 422.88 362.2 422.36 361.02 422.2C360.118 422.218 359.222 422.062 358.38 421.74C358.28 421.62 358.38 421.44 358.55 421.34C359.083 421.001 359.538 420.552 359.883 420.022C360.228 419.492 360.455 418.895 360.55 418.27C361.89 412.67 362.55 407.84 364.06 400.96L381 409.26Z" fill="#FFA8A7"/>
<path d="M391.42 279.78C391.42 279.78 384.83 287.67 380.85 302.44C377.242 316.155 374.497 330.082 372.63 344.14C371.68 350.43 370.98 354.91 369.27 366.36C367.85 375.89 361.59 411.36 361.59 411.36C361.59 411.36 366.18 415.36 370.04 416.8C373.64 418.16 376.97 418.7 378.29 418.16C378.29 418.16 382.72 406.78 388.2 391.88C390.845 385.054 392.954 378.033 394.51 370.88C395.23 367.19 395.06 360.63 394.99 357.32L424.45 311.82C426.829 309.002 428.69 305.786 429.95 302.32C433.82 292.6 428.88 278.58 428.88 278.58L391.42 279.78Z" fill="#263238"/>
<path d="M380.85 302.44C376.15 320 373.6 338.82 370.97 356.82C368.27 374.48 364.72 393.7 361.59 411.35C364.35 393.61 367.9 374.45 370.47 356.75C373.25 338.75 375.77 319.92 380.85 302.44Z" fill="white"/>
<path d="M420.41 292.56H384.23C382.881 295.773 381.752 299.074 380.85 302.44C377.49 315.069 374.912 327.894 373.13 340.84C374.01 346.76 375 352.84 375.93 357.02C378.36 368.02 379.87 375.86 381.8 380.41C383.73 384.96 388.34 391.41 388.36 391.41C390.93 384.71 392.986 377.823 394.51 370.81C395.23 367.12 395.06 360.56 394.99 357.25L416.39 324.25L418.05 314C423.52 305.08 422.91 298.4 420.41 292.56Z" fill="#162530"/>
<path d="M433.06 429.88C431.2 426.88 430.19 421.19 426.11 409.56L410.2 422.56L419.63 437.56C419.929 438.328 420.157 439.121 420.31 439.93C422.34 442.88 433.06 429.88 433.06 429.88Z" fill="#FFA8A7"/>
<path d="M438.67 436.22C438.67 436.05 438.74 434.65 438.67 434.48C438.27 432.97 437.34 432.55 436.14 431.71C434.938 430.897 433.831 429.951 432.84 428.89C432.44 428.33 432.36 428.04 431.74 427.79C430.932 427.537 430.079 427.464 429.239 427.574C428.4 427.685 427.595 427.977 426.88 428.43C423.44 430.23 422.39 432.43 422.59 434.77C422.74 436.56 422.89 438.95 421.3 440.02C420.64 440.47 419.6 437.6 419.6 437.6C418.6 439.23 420 441.5 420.71 444.82C421.123 446.654 421.157 448.553 420.81 450.4C420.46 453.31 420.06 453.3 418.51 453.5C417.18 453.68 413.4 453.43 411.1 455.03C410.224 455.541 409.53 456.314 409.114 457.239C408.698 458.164 408.581 459.195 408.78 460.19C409.19 461.31 412.64 466.74 425.22 464.71C428.87 464.12 436.54 458.38 436.43 457.85C436.365 457.302 436.365 456.748 436.43 456.2C436.43 454.91 436.52 453.62 436.58 452.34C436.532 451.109 436.606 449.876 436.8 448.66C437.032 447.674 437.186 446.671 437.26 445.66C437.5 443.07 437.75 440.49 437.99 437.91C438.12 437.12 438.77 437 438.67 436.22Z" fill="#37474F"/>
<path d="M440.26 435.71C441.5 436.91 440.74 440.4 439.08 444.58C438.34 446.43 436.97 449.63 437.37 453.02C437.77 456.41 437.84 458.02 436.97 459.61C435.6 462.1 428.28 465.29 423.97 466.29C426.576 462.633 428.095 458.313 428.35 453.83C428.79 446.34 429.35 441.51 432.79 438.18C437.12 434 440.26 435.71 440.26 435.71Z" fill="#162530"/>
<path d="M408.81 460.19C408.81 460.19 411.33 464.92 421.07 464.76C424.91 464.7 426.96 462.83 427.07 457.01C427.19 450.01 427.75 442.89 430.02 439.41C432.29 435.93 435.91 434.23 438.72 434.48C439.376 434.679 439.933 435.118 440.28 435.71C440.28 435.71 437.47 434.79 433.1 438.41C429.87 441.09 429 446.68 429.05 453.62C429.05 456.62 429.25 460 428.38 462.27C427.976 463.267 427.346 464.157 426.539 464.869C425.732 465.581 424.77 466.095 423.73 466.37C418.43 467.85 411.19 465.37 409.36 463.17C409.047 462.748 408.835 462.26 408.74 461.744C408.645 461.227 408.668 460.696 408.81 460.19Z" fill="#263238"/>
<path d="M420.51 452.23C420.115 452.509 419.834 452.921 419.72 453.39C419.676 453.989 419.795 454.589 420.064 455.126C420.334 455.663 420.743 456.117 421.25 456.44C421.84 456.81 422.35 456.68 421.42 455.44C420.824 454.475 420.509 453.364 420.51 452.23Z" fill="#FAFAFA"/>
<path d="M421 448.59C421 448.59 420.69 448.79 420.62 449.77C420.781 451.008 421.424 452.133 422.41 452.9C423.41 453.4 422.88 452.22 422.41 451.64C421.718 450.742 421.236 449.699 421 448.59Z" fill="#FAFAFA"/>
<path d="M420.69 444.58C420.69 444.58 420.35 444.67 420.69 446.01C421.163 446.856 421.911 447.516 422.81 447.88C423.47 447.96 423.81 447.63 422.98 447.04C422.36 446.58 420.81 445.23 420.69 444.58Z" fill="#FAFAFA"/>
<path d="M414.27 279.78C415.99 281.54 420.27 287.45 420.97 296.54C421.234 302.514 419.359 308.386 415.68 313.1C414.3 333.26 412.99 371.32 412.99 371.32C417.67 377.93 418.86 382.17 421.94 392C423.81 398 430.29 421.66 430.29 421.66C420.81 423.09 415.05 431.42 415.05 431.42C415.05 431.42 401.91 410.25 393.17 395.52C386.77 384.74 384.57 380.1 382.43 373.99C380.43 368.37 379.03 361.57 377.11 348.45C375.19 335.33 373.31 318.06 372.37 305.14C371.43 292.22 371.97 278.73 371.97 278.73L414.27 279.78Z" fill="#263238"/>
<path d="M415.049 431.42C410.519 424.25 401.569 409.8 397.179 402.55C391.429 392.82 385.019 383.28 381.679 372.37C379.011 361.357 377.008 350.193 375.679 338.94C374.269 327.71 373.149 316.44 372.399 305.14C372.859 310.78 373.403 316.413 374.029 322.04C375.819 338.9 378.029 355.8 382.189 372.24C385.449 383.09 391.809 392.67 397.489 402.38L415.079 431.38L415.049 431.42Z" fill="white"/>
<path d="M431.359 295.58C429.818 295.082 428.467 294.122 427.489 292.83C427.025 291.931 426.689 290.972 426.489 289.98C426.088 288.322 425.543 286.703 424.859 285.14L423.859 285.58C424.51 287.093 425.032 288.659 425.419 290.26C425.643 291.359 426.023 292.42 426.549 293.41C427.718 294.985 429.373 296.131 431.259 296.67C431.299 296.31 431.339 296 431.359 295.58Z" fill="#162530"/>
<path d="M405.469 307.13C405.705 307.131 405.939 307.108 406.169 307.06C407.749 306.71 408.979 305.65 411.429 302.52C413.289 300.13 413.099 298.42 412.789 295.58C412.669 294.53 411.569 288.96 411.509 287.49L410.459 288.07C410.529 289.58 411.589 294.64 411.699 295.7C412.019 298.52 412.159 299.81 410.569 301.84C408.299 304.74 407.219 305.71 405.929 306C404.639 306.29 399.149 305.36 397.669 304.34C396.819 303.75 395.399 296.47 394.559 290.05L393.479 290.2C393.899 293.44 395.399 304.1 397.049 305.2C398.519 306.25 403.269 307.19 405.469 307.13Z" fill="#162530"/>
<path d="M394.899 203.29L396.889 217.87L416.699 216.86L414.559 201.07L394.899 203.29Z" fill="#FFA8A7"/>
<path d="M387 176C385.48 177.93 380.82 183.19 380 184.57L384.44 187.26L387 176Z" fill="#F28F8F"/>
<path d="M387 176C384.859 179.009 382.521 181.872 380 184.57C381.986 181.447 384.336 178.57 387 176Z" fill="white"/>
<path d="M398 161.35C391.88 160.69 387.91 165.03 386.13 178.06C386.06 178.57 385.31 179.37 384.74 181.32C382.28 189.68 383.65 197.64 385.07 199.76C388.62 202.61 392.56 203.68 398.27 203.19C402.62 202.82 413.72 201.5 419.36 195.62C425.98 188.71 429.36 178.28 424.62 172.88C418 165.27 401.4 161.71 398 161.35Z" fill="#FFA8A7"/>
<path d="M398 161.35C388.8 160.58 387.53 171.82 386.21 178.57C383.7 183.32 383.32 189.03 383.71 194.32C383.802 196.205 384.264 198.053 385.07 199.76C384.19 198.077 383.643 196.24 383.46 194.35C382.9 188.99 383.25 183.2 385.77 178.35C386.98 171.57 388.77 160.14 398 161.35Z" fill="white"/>
<path d="M385.09 199.76C385.87 200.93 391.48 203.81 395 204.03L394.67 201.29C391.423 201.206 388.201 200.692 385.09 199.76Z" fill="#F28F8F"/>
<path d="M396.809 184.18C396.869 184.389 396.987 184.577 397.15 184.722C397.312 184.867 397.512 184.963 397.727 184.998C397.942 185.034 398.162 185.008 398.362 184.923C398.563 184.838 398.735 184.699 398.859 184.52C399.504 183.576 400.252 182.707 401.089 181.93C402.153 181.054 403.502 180.598 404.879 180.65C410.019 181.04 408.759 187.81 406.239 190.17C402.109 194.02 399.919 190.69 399.919 190.69C399.919 190.69 396.919 197.24 401.269 201.07C401.269 201.07 408.729 204.29 414.589 202.47C418.969 197.75 421.899 194.77 424.849 190.71C431.849 181.09 431.849 171.57 427.359 168.85C427.609 165.44 425.769 160.3 418.749 157.34C412.069 154.51 407.599 154.79 402.749 155.06C397.899 155.33 391.979 157.54 387.489 153.79C386.94 155.144 386.721 156.61 386.852 158.066C386.982 159.521 387.458 160.925 388.239 162.16C387.514 161.811 386.68 161.765 385.92 162.031C385.161 162.298 384.538 162.855 384.189 163.58C383.841 164.305 383.794 165.14 384.061 165.899C384.327 166.659 384.884 167.281 385.609 167.63C385.13 167.904 384.759 168.335 384.561 168.851C384.362 169.367 384.348 169.935 384.519 170.46C384.718 170.975 385.06 171.423 385.505 171.751C385.949 172.079 386.478 172.273 387.029 172.31C388.033 172.369 389.041 172.305 390.029 172.12C391.439 176.06 395.889 177.44 398.539 177.28C398.469 177.28 398.119 177.82 398.069 177.89C397.919 178.11 397.779 178.34 397.649 178.57C397.396 179.04 397.185 179.532 397.019 180.04C396.693 181.063 396.567 182.139 396.649 183.21C396.646 183.54 396.7 183.868 396.809 184.18Z" fill="#455A64"/>
<path d="M387.51 153.79C386.987 155.145 386.789 156.604 386.933 158.049C387.078 159.494 387.559 160.885 388.34 162.11L388.51 162.37L388.22 162.24C387.521 161.931 386.729 161.907 386.013 162.171C385.296 162.436 384.71 162.97 384.38 163.659C384.05 164.348 384.001 165.138 384.244 165.863C384.486 166.587 385.001 167.189 385.68 167.54L385.86 167.63L385.68 167.72C383.17 169.32 385.01 172.51 387.68 172.3C388.483 172.305 389.286 172.245 390.08 172.12C388.896 172.394 387.672 172.445 386.47 172.27C384.25 171.78 383.47 168.71 385.58 167.54V167.72C384.831 167.362 384.254 166.721 383.978 165.938C383.701 165.155 383.747 164.294 384.105 163.545C384.463 162.796 385.104 162.219 385.887 161.943C386.67 161.666 387.531 161.712 388.28 162.07L388.17 162.21C387.385 160.966 386.914 159.549 386.797 158.083C386.681 156.616 386.922 155.143 387.5 153.79H387.51Z" fill="white"/>
<path d="M424.769 211.38C429.909 214.26 433.819 223.86 433.439 231.87C433.199 236.95 431.439 250.04 429.899 261.62C429.419 265.27 430.899 271.43 431.539 278.83C432.039 284.32 432.109 290.16 432.109 290.16C432.109 290.16 425.219 298.68 406.319 299.79C382.179 301.22 371.489 295.38 371.489 295.38C371.489 295.38 371.349 275.72 371.929 260.14C372.789 237.05 372.839 230.3 376.449 222.43C377.639 220.11 378.889 214.94 382.819 213.91C385.939 213.1 393.119 211.38 395.969 210.91C400.629 212.11 412.729 212.21 415.729 209.66L415.679 208.99C420.869 209 421.599 209.61 424.769 211.38Z" fill="#FF8400"/>
<path d="M295.46 270.46C296.25 270.64 297.31 270.23 298.46 269.22C300.793 266.994 302.358 264.084 302.93 260.91C303.14 259.4 302.93 258.29 302.32 257.73L297.59 253.2C296.933 252.67 296.132 252.349 295.291 252.277C294.45 252.206 293.607 252.388 292.87 252.8C288.87 254.86 285.69 260.8 286.15 265.28C286.36 267.29 295 270.35 295.46 270.46Z" fill="#455A64"/>
<path d="M302.679 260.45C302.821 259.813 302.75 259.147 302.478 258.553C302.207 257.959 301.749 257.471 301.175 257.161C300.6 256.851 299.94 256.737 299.295 256.836C298.65 256.935 298.054 257.242 297.599 257.71C296.171 258.702 294.997 260.017 294.172 261.548C293.347 263.078 292.894 264.782 292.849 266.52C292.705 267.159 292.773 267.829 293.045 268.425C293.317 269.022 293.776 269.513 294.353 269.824C294.931 270.135 295.594 270.248 296.241 270.146C296.889 270.044 297.485 269.733 297.939 269.26C299.37 268.271 300.545 266.956 301.369 265.425C302.193 263.894 302.642 262.189 302.679 260.45Z" fill="#263238"/>
<path d="M327.48 284.21C327.824 284.345 328.197 284.39 328.563 284.339C328.929 284.288 329.276 284.144 329.57 283.92C330.397 283.343 331.076 282.581 331.554 281.693C332.032 280.805 332.294 279.818 332.32 278.81C332.345 278.442 332.274 278.073 332.115 277.74C331.955 277.407 331.713 277.121 331.41 276.91L301.29 259.73C300.843 259.498 300.345 259.381 299.842 259.392C299.339 259.402 298.846 259.539 298.41 259.79C297.298 260.396 296.387 261.313 295.787 262.428C295.187 263.543 294.924 264.808 295.03 266.07C295.062 266.572 295.22 267.057 295.49 267.482C295.759 267.906 296.13 268.256 296.57 268.5L327.48 284.21Z" fill="#455A64"/>
<path d="M332.32 278.81C332.345 278.442 332.275 278.073 332.115 277.74C331.956 277.407 331.713 277.121 331.41 276.91C331.077 276.751 330.706 276.688 330.339 276.726C329.972 276.765 329.623 276.905 329.33 277.13C328.474 277.705 327.771 278.48 327.281 279.388C326.791 280.295 326.53 281.309 326.52 282.34C326.495 282.714 326.575 283.088 326.752 283.418C326.929 283.749 327.195 284.023 327.52 284.21C327.864 284.345 328.237 284.39 328.603 284.339C328.969 284.288 329.316 284.144 329.61 283.92C330.43 283.339 331.102 282.574 331.572 281.687C332.043 280.8 332.299 279.814 332.32 278.81Z" fill="#263238"/>
<path d="M365.25 274.35C367.97 273.44 369.98 270.29 373.88 262.17C378.76 252.07 381.39 249.79 384.97 239.45C387.97 231.88 383.97 217.92 382.15 215.01C376.06 217.18 371.81 219.19 367.7 227.73C364.01 235.41 356.62 250.91 353.25 257.73C353.25 257.73 333.64 261.96 328.37 262.31C326.326 262.491 324.271 262.107 322.43 261.2C321.329 260.635 320.107 260.347 318.87 260.36C318.384 260.343 317.9 260.414 317.44 260.57C316.579 260.987 315.816 261.579 315.2 262.31C313.886 263.394 312.507 264.396 311.07 265.31C309.48 266.5 307.61 267.31 306 268.52C304.62 269.52 303.1 270.39 302.23 271.93C302.068 272.178 301.959 272.458 301.91 272.75C301.883 273.004 301.913 273.261 301.996 273.503C302.078 273.745 302.213 273.965 302.39 274.15C302.748 274.521 303.196 274.793 303.69 274.94C304.389 275.06 305.065 275.293 305.69 275.63C306.34 276.11 306.39 277.06 306.98 277.63C307.9 278.5 309.41 278.37 310.46 279.09C311.27 279.65 311.72 280.67 312.59 281.09C313.064 281.3 313.572 281.422 314.09 281.45C315.01 281.54 315.92 281.82 316.84 281.82C317.94 281.82 318.42 281.3 319.33 280.82C322.47 279.07 324.17 276.97 329.72 276.6C333.43 276.36 362.53 275.26 365.25 274.35Z" fill="#FFA8A7"/>
<path d="M382.74 213.91C376.11 215.49 372.19 217.91 367.83 225.91C363.83 233.32 352.83 257 352.83 257L341.83 260.09C340.953 261.373 340.349 262.822 340.057 264.348C339.764 265.874 339.789 267.444 340.13 268.96C341.18 274.1 343.46 276.41 343.46 276.41C343.46 276.41 349.07 276.25 358.63 275.92C368.19 275.59 368.88 273.38 370.98 269.22C373.08 265.06 385.98 239.96 385.98 239.96C385.98 239.96 391.2 221.4 382.74 213.91Z" fill="#455A64"/>
<path d="M396 211C391.54 211.82 387.14 213 382.76 214.1C379.459 214.752 376.368 216.204 373.76 218.33C369.52 222.14 367.27 227.53 364.76 232.53C360.76 240.67 357.01 248.91 353.16 257.11V257.21H353.05L342.05 260.27C336.71 261.08 331.05 262.87 325.63 262.37C323.76 262.2 322.19 260.99 320.41 260.64C319.526 260.455 318.613 260.455 317.73 260.64C316.894 260.973 316.155 261.509 315.58 262.2C312.81 264.68 309.5 266.37 306.41 268.34C304.96 269.43 303.24 270.34 302.31 271.94C303.22 270.3 304.93 269.38 306.31 268.27C309.36 266.27 312.66 264.48 315.31 262.02C315.912 261.291 316.689 260.726 317.57 260.38C318.493 260.185 319.446 260.185 320.37 260.38C322.2 260.72 323.71 261.91 325.58 262.08C331 262.53 336.58 260.74 341.86 259.89L352.8 256.78L352.65 256.91C356.416 248.663 360.306 240.477 364.32 232.35C366.89 227.35 369.19 221.92 373.49 218.1C376.162 215.879 379.386 214.424 382.82 213.89C386.65 212.82 391.68 211.74 395.96 210.99L396 211Z" fill="white"/>
<path opacity="0.3" d="M378.51 357C373.95 374.051 370.609 391.405 368.51 408.93C367.83 414.6 366.97 420.88 362.58 424.52C359.21 427.31 354.58 427.83 350.2 428.15C342.02 428.73 333.15 428.78 326.29 424.5C327.17 426.93 329.56 429.82 333.41 432.08C337.87 434.69 347.67 436.46 350.56 437.27C353.45 438.08 357.88 441.11 360.56 442.49C365.46 444.99 369.46 444.7 371.69 443.59C372.077 443.341 372.408 443.016 372.664 442.634C372.921 442.252 373.096 441.822 373.18 441.37C373.77 439.37 373.72 438.94 373.5 438.89C374.132 436.973 374.568 434.996 374.8 432.99C375.39 426.99 376.8 425.24 375.74 424.6C376.31 423.16 377.17 420.74 378.03 418.25C378.125 418.229 378.218 418.203 378.31 418.17C378.31 418.17 382.74 406.79 388.23 391.9C388.6 390.9 388.95 389.9 389.29 388.96C385.57 382.59 383.67 378.83 382.45 374.01C381.23 369.19 379.91 364.59 378.51 357ZM449.86 264C449.47 259.081 448.479 254.228 446.91 249.55C445.67 245.68 440.04 226.85 435.82 219.11C431.6 211.37 427.18 209.74 419.27 209.11C418.078 208.982 416.879 208.932 415.68 208.96C415.68 208.96 415.68 209.34 415.68 209.53L414.68 202.26C418.98 197.63 421.89 194.66 424.8 190.65C431.8 181.02 431.8 171.51 427.31 168.79C427.57 165.37 425.72 160.24 418.71 157.28C416.469 156.308 414.118 155.609 411.71 155.2C409.353 155.476 407.028 155.982 404.77 156.71C401.66 157.71 398.57 159.24 396.59 161.84C394.87 164.12 394.16 166.98 393.49 169.75C391.34 178.64 389.19 187.7 389.9 196.81C389.933 198.365 390.316 199.893 391.02 201.28C391.465 201.979 392.047 202.58 392.731 203.048C393.415 203.515 394.187 203.839 395 204C395 204 399.31 204.28 401.47 204.32C401.77 206.16 402.2 208.92 402.47 210.76C402.635 211.37 402.607 212.016 402.39 212.61C402.16 212.946 401.864 213.232 401.521 213.451C401.177 213.669 400.792 213.815 400.39 213.88C392.57 216.03 383.45 216.22 377.95 222.18C376.013 224.52 374.461 227.153 373.35 229.98L364.77 248.87C362.91 252.98 360.92 257.25 357.37 260.03C350.96 265.03 341.81 263.69 333.91 265.64C328.18 267.06 323.08 270.25 317.41 271.83C316.11 272.2 314.81 272.55 313.49 272.83C312.17 273.11 310.71 272.98 309.33 273.19C308.804 273.243 308.308 273.46 307.912 273.81C307.515 274.16 307.238 274.625 307.12 275.14C307.084 275.69 307.176 276.241 307.39 276.75C307.659 277.422 308.114 278.005 308.7 278.43C309.313 278.549 309.902 278.772 310.44 279.09C311.26 279.65 311.7 280.67 312.57 281.09C313.043 281.301 313.552 281.42 314.07 281.44C314.978 281.617 315.897 281.741 316.82 281.81C317.92 281.81 318.4 281.29 319.31 280.81L320.02 280.39C322.74 278.74 324.59 276.92 329.71 276.58L330.77 276.52C333.09 276.4 337.88 276.19 343.19 275.94C343.41 276.21 343.54 276.34 343.54 276.34C343.54 276.34 349.15 276.19 358.71 275.86C368.27 275.53 368.96 273.31 371.06 269.16L371.7 267.9V268C374.77 262 380.23 251.27 382.03 247.76C382.03 247.76 381.37 276.76 381.44 289.35C381.57 312.82 385.25 336.1 388.91 359.28C389.82 364.98 392.24 370.4 394.27 375.83C396.51 381.83 398.82 387.83 401.27 393.73C406.03 405.428 411.791 416.693 418.49 427.4C420.098 429.647 421.44 432.074 422.49 434.63C423.75 438.24 423.68 442.16 423.56 445.97C423.637 449.111 423.181 452.242 422.21 455.23C420.21 460.57 413.26 461.08 408.94 457.93C408.704 458.667 408.666 459.453 408.83 460.21C408.686 460.718 408.658 461.251 408.75 461.771C408.842 462.29 409.05 462.783 409.36 463.21C411.19 465.45 418.43 467.9 423.73 466.41L423.99 466.33C428.3 465.33 435.62 462.15 436.99 459.66C437.87 458.07 437.8 456.46 437.39 453.07C436.98 449.68 438.39 446.48 439.1 444.62C440.77 440.44 441.52 436.96 440.28 435.75C439.933 435.159 439.376 434.72 438.72 434.52C438.32 433.02 437.39 432.6 436.2 431.76C434.99 430.949 433.879 429.999 432.89 428.93C432.697 428.578 432.439 428.266 432.13 428.01C431.49 426.47 430.87 424.43 430.06 421.76H430.32C430.32 421.76 423.81 398 421.94 392C418.86 382.17 417.67 377.93 412.99 371.32C412.99 371.32 413.84 346.67 414.89 326.54L424.45 311.77C426.307 309.605 427.831 307.175 428.97 304.56C428.939 304.615 428.912 304.671 428.89 304.73C429.078 304.786 429.274 304.81 429.47 304.8C431.59 304.8 433.1 302.8 434.67 301.71C434.803 301.589 434.964 301.504 435.139 301.462C435.314 301.42 435.496 301.423 435.67 301.47L435.78 301.4C437.47 300.59 437.57 304.4 437.54 305.21C437.401 307.135 436.934 309.022 436.16 310.79C434.98 313.73 433.49 316.69 433.63 319.85C433.63 320.07 433.66 320.289 433.72 320.5C434.42 320.15 434.72 319.01 435.05 318.41C435.553 317.714 436.215 317.149 436.98 316.76C437.772 316.099 438.52 315.388 439.22 314.63C439.96 313.99 441.1 314.09 441.96 313.44C442.82 312.79 442.69 311.96 443.23 311.3C443.77 310.64 444.6 310.45 445.15 309.77C446.01 308.723 446.579 307.467 446.8 306.13C447.18 303.3 447.91 300.56 447.9 297.71C447.89 294.86 447.9 292.38 448.05 289.71C448.32 285.48 449.18 278.65 449.52 272.97C449.684 272.843 449.823 272.687 449.93 272.51C450.111 269.675 450.087 266.831 449.86 264ZM439.24 286.07C438.66 288.22 437 289.86 435.73 291.68C433.19 295.32 432.14 299.85 429.49 303.42C429.65 303.04 429.82 302.65 429.98 302.24C431.244 298.636 431.708 294.801 431.34 291C431.616 290.753 431.873 290.485 432.11 290.2C432.11 290.2 432.04 284.36 431.54 278.88C430.87 271.47 429.42 265.32 429.9 261.67C430.47 257.33 431.08 252.77 431.62 248.5C433.157 251.532 434.493 254.662 435.62 257.87C438.32 265.72 438.99 274.08 439.42 282.31C439.557 283.568 439.496 284.84 439.24 286.08V286.07Z" fill="#162530"/>
<path d="M106.14 192.74L95.6401 198.8V224.06L81.1401 232.43L98.1401 168.43L86.8601 175L68.6201 243.2V253L95.6201 237.4V252L106.12 245.94V231.3L113.22 227.2V213.9L106.12 218L106.14 192.74ZM144.35 141.74C129.28 150.44 117.07 173.74 117.07 193.86C117.07 213.98 129.28 223.18 144.35 214.49C159.42 205.8 171.63 182.49 171.63 162.36C171.63 142.23 159.41 133.09 144.35 141.79V141.74ZM144.35 200.48C135.08 205.83 127.57 200.15 127.57 187.8C127.57 175.45 135.08 161.09 144.35 155.74C153.62 150.39 161.12 156.07 161.12 168.43C161.12 180.79 153.61 195.18 144.35 200.53V200.48ZM212.71 156.42V131.21L202.2 137.27V162.53L187.71 170.9L204.71 106.9L193.42 113.42L175.18 181.64V191.4L202.18 175.8V190.42L212.69 184.36V169.77L219.79 165.67V152.37L212.71 156.42Z" fill="#FF8400"/>
<path d="M104.69 151.81C104.716 151.791 104.747 151.78 104.78 151.78C104.812 151.78 104.844 151.791 104.87 151.81C104.93 151.81 104.95 151.91 104.95 152.01V152.94C104.95 153.042 104.923 153.143 104.87 153.23C104.832 153.316 104.769 153.389 104.69 153.44L100.38 155.93C100.354 155.949 100.322 155.96 100.29 155.96C100.257 155.96 100.226 155.949 100.2 155.93C100.172 155.905 100.151 155.874 100.137 155.839C100.123 155.804 100.117 155.767 100.12 155.73V147.28C100.124 147.179 100.151 147.079 100.2 146.99C100.238 146.904 100.3 146.831 100.38 146.78L104.61 144.34C104.636 144.318 104.67 144.306 104.705 144.306C104.739 144.306 104.773 144.318 104.8 144.34C104.827 144.367 104.847 144.4 104.859 144.437C104.871 144.473 104.875 144.512 104.87 144.55V145.47C104.87 145.574 104.846 145.677 104.8 145.77C104.755 145.855 104.69 145.927 104.61 145.98L101.44 147.81V149.89L104.44 148.18C104.467 148.16 104.5 148.149 104.535 148.149C104.569 148.149 104.602 148.16 104.63 148.18C104.657 148.205 104.678 148.236 104.692 148.271C104.706 148.306 104.712 148.343 104.71 148.38V149.31C104.707 149.415 104.679 149.518 104.63 149.61C104.591 149.699 104.524 149.773 104.44 149.82L101.44 151.52V153.69L104.69 151.81Z" fill="#37474F"/>
<path d="M108.999 141.82C109.819 141.35 110.439 141.25 110.869 141.51C111.299 141.77 111.499 142.34 111.499 143.24C111.502 143.862 111.39 144.479 111.169 145.06C110.939 145.639 110.599 146.169 110.169 146.62L111.519 149.07C111.528 149.109 111.528 149.151 111.519 149.19C111.518 149.274 111.498 149.356 111.459 149.43C111.422 149.497 111.371 149.555 111.309 149.6L110.469 150.09C110.339 150.16 110.249 150.18 110.179 150.09C110.128 150.048 110.084 149.997 110.049 149.94L108.769 147.63L107.459 148.38V151.43C107.461 151.532 107.433 151.633 107.379 151.72C107.338 151.807 107.276 151.883 107.199 151.94L106.399 152.39C106.374 152.411 106.342 152.423 106.309 152.423C106.276 152.423 106.244 152.411 106.219 152.39C106.189 152.365 106.166 152.332 106.152 152.295C106.138 152.259 106.133 152.219 106.139 152.18V143.74C106.137 143.638 106.165 143.537 106.219 143.45C106.257 143.361 106.32 143.285 106.399 143.23L108.999 141.82ZM107.529 146.82L108.949 146C109.3 145.806 109.607 145.54 109.849 145.22C110.084 144.873 110.2 144.459 110.179 144.04C110.179 143.55 110.069 143.29 109.849 143.25C109.527 143.236 109.21 143.331 108.949 143.52L107.529 144.34V146.82Z" fill="#37474F"/>
<path d="M115.529 138C116.349 137.53 116.969 137.42 117.389 137.68C117.809 137.94 118.029 138.52 118.029 139.42C118.036 140.668 117.576 141.874 116.739 142.8L118.089 145.24C118.099 145.283 118.099 145.327 118.089 145.37C118.089 145.454 118.068 145.536 118.029 145.61C117.992 145.68 117.937 145.739 117.869 145.78L117.039 146.26C116.909 146.34 116.809 146.35 116.749 146.31C116.695 146.267 116.651 146.212 116.619 146.15L115.329 143.85L114.029 144.6V147.65C114.025 147.751 113.998 147.851 113.949 147.94C113.911 148.026 113.849 148.099 113.769 148.15L112.969 148.61C112.942 148.627 112.911 148.636 112.879 148.636C112.848 148.636 112.816 148.627 112.789 148.61C112.759 148.585 112.736 148.552 112.722 148.515C112.708 148.479 112.704 148.439 112.709 148.4V140C112.707 139.894 112.735 139.79 112.789 139.7C112.828 139.614 112.89 139.541 112.969 139.49L115.529 138ZM114.059 143L115.479 142.18C115.828 141.985 116.131 141.72 116.369 141.4C116.612 141.052 116.731 140.633 116.709 140.21C116.709 139.73 116.599 139.46 116.369 139.43C116.052 139.418 115.74 139.509 115.479 139.69L114.059 140.51V143Z" fill="#37474F"/>
<path d="M119.069 139.4C119.09 138.894 119.16 138.392 119.279 137.9C119.398 137.402 119.579 136.922 119.819 136.47C120.054 136.009 120.35 135.582 120.699 135.2C121.062 134.804 121.483 134.467 121.949 134.2C122.328 133.962 122.755 133.812 123.199 133.76C123.514 133.727 123.829 133.817 124.079 134.01C124.339 134.218 124.527 134.501 124.619 134.82C124.751 135.228 124.825 135.652 124.839 136.08C124.839 136.24 124.839 136.42 124.839 136.62C124.839 136.82 124.839 137.03 124.839 137.24C124.839 137.45 124.839 137.66 124.839 137.86C124.839 138.06 124.839 138.25 124.839 138.42C124.819 138.926 124.748 139.428 124.629 139.92C124.506 140.416 124.325 140.896 124.089 141.35C123.854 141.813 123.555 142.241 123.199 142.62C122.841 143.02 122.418 143.358 121.949 143.62C121.573 143.864 121.145 144.018 120.699 144.07C120.386 144.102 120.073 144.016 119.819 143.83C119.56 143.622 119.371 143.339 119.279 143.02C119.152 142.612 119.081 142.188 119.069 141.76C119.069 141.6 119.069 141.42 119.069 141.22C119.069 141.02 119.069 140.81 119.069 140.6C119.069 140.39 119.069 140.18 119.069 139.98C119.069 139.78 119.069 139.57 119.069 139.4ZM123.509 136.9C123.531 136.68 123.502 136.459 123.424 136.252C123.346 136.046 123.221 135.86 123.059 135.71C122.779 135.523 122.409 135.563 121.949 135.83C121.483 136.104 121.102 136.502 120.849 136.98C120.563 137.509 120.408 138.099 120.399 138.7C120.399 139.04 120.399 139.41 120.399 139.82C120.399 140.23 120.399 140.59 120.399 140.91C120.375 141.13 120.403 141.352 120.481 141.559C120.56 141.766 120.686 141.951 120.849 142.1C121.028 142.204 121.234 142.251 121.44 142.233C121.646 142.215 121.841 142.133 121.999 142C122.469 141.727 122.853 141.329 123.109 140.85C123.391 140.323 123.546 139.737 123.559 139.14C123.559 138.8 123.559 138.43 123.559 138.02C123.559 137.61 123.529 137.22 123.509 136.9Z" fill="#37474F"/>
<path d="M128.92 130.3C129.74 129.83 130.36 129.72 130.79 129.98C131.22 130.24 131.43 130.82 131.43 131.72C131.432 132.342 131.32 132.959 131.1 133.54C130.871 134.117 130.531 134.643 130.1 135.09L131.45 137.54C131.46 137.583 131.46 137.627 131.45 137.67C131.449 137.754 131.428 137.836 131.39 137.91C131.359 137.981 131.307 138.041 131.24 138.08L130.4 138.56C130.27 138.64 130.18 138.65 130.11 138.56C130.053 138.523 130.009 138.471 129.98 138.41L128.7 136.11L127.39 136.86V139.86C127.389 139.961 127.365 140.06 127.32 140.15C127.275 140.235 127.21 140.307 127.13 140.36L126.33 140.82C126.304 140.839 126.272 140.85 126.24 140.85C126.207 140.85 126.176 140.839 126.15 140.82C126.121 140.796 126.099 140.765 126.085 140.73C126.071 140.695 126.066 140.657 126.07 140.62V132.17C126.074 132.069 126.101 131.969 126.15 131.88C126.188 131.794 126.25 131.721 126.33 131.67L128.92 130.3ZM127.45 135.3L128.87 134.47C129.22 134.279 129.527 134.017 129.77 133.7C130.002 133.348 130.118 132.932 130.1 132.51C130.1 132.02 129.99 131.76 129.77 131.72C129.449 131.716 129.135 131.81 128.87 131.99L127.45 132.81V135.3Z" fill="#37474F"/>
<path d="M140.81 132.59C140.69 132.66 140.61 132.67 140.55 132.59C140.503 132.558 140.459 132.521 140.42 132.48L137.68 128.63V134.02C137.676 134.121 137.648 134.221 137.6 134.31C137.559 134.397 137.493 134.47 137.41 134.52L136.62 134.98C136.593 135 136.559 135.011 136.525 135.011C136.491 135.011 136.458 135 136.43 134.98C136.403 134.955 136.381 134.924 136.367 134.889C136.354 134.854 136.348 134.817 136.35 134.78V126.33C136.354 126.229 136.382 126.129 136.43 126.04C136.471 125.953 136.538 125.88 136.62 125.83L137.31 125.43C137.42 125.37 137.5 125.36 137.56 125.43L137.69 125.54L140.43 129.39V124C140.434 123.895 140.462 123.793 140.51 123.7C140.551 123.613 140.618 123.54 140.7 123.49L141.49 123.03C141.518 123.01 141.551 122.999 141.585 122.999C141.619 122.999 141.653 123.01 141.68 123.03C141.708 123.055 141.729 123.086 141.743 123.121C141.757 123.156 141.763 123.193 141.76 123.23V131.68C141.757 131.782 141.73 131.881 141.68 131.97C141.636 132.058 141.571 132.133 141.49 132.19L140.81 132.59Z" fill="#37474F"/>
<path d="M132.819 136.41C132.835 136.278 132.872 136.15 132.929 136.03C132.986 135.904 133.08 135.799 133.199 135.73L133.959 135.29C133.98 135.275 134.004 135.267 134.029 135.267C134.054 135.267 134.079 135.275 134.099 135.29C134.12 135.309 134.137 135.332 134.147 135.358C134.158 135.384 134.162 135.412 134.159 135.44C134.159 135.44 134.159 135.5 134.159 135.52L133.579 137.81C133.579 137.9 133.509 138 133.459 138.12C133.403 138.238 133.313 138.335 133.199 138.4L132.799 138.63C132.781 138.645 132.758 138.654 132.734 138.654C132.711 138.654 132.687 138.645 132.669 138.63C132.669 138.63 132.609 138.56 132.609 138.49L132.819 136.41Z" fill="#37474F"/>
<path d="M143.05 125.56C143.07 125.054 143.141 124.552 143.26 124.06C143.378 123.559 143.559 123.075 143.8 122.62C144.034 122.162 144.33 121.738 144.68 121.36C145.04 120.962 145.462 120.624 145.93 120.36C146.306 120.117 146.734 119.966 147.18 119.92C147.493 119.885 147.807 119.971 148.06 120.16C148.317 120.374 148.505 120.659 148.6 120.98C148.733 121.387 148.807 121.812 148.82 122.24C148.82 122.4 148.82 122.58 148.82 122.78V124C148.82 124.2 148.82 124.39 148.82 124.56C148.799 125.066 148.728 125.568 148.61 126.06C148.487 126.556 148.305 127.036 148.07 127.49C147.831 127.951 147.532 128.378 147.18 128.76C146.818 129.157 146.396 129.494 145.93 129.76C145.553 130.004 145.125 130.158 144.68 130.21C144.367 130.243 144.053 130.157 143.8 129.97C143.538 129.76 143.349 129.473 143.26 129.15C143.132 128.745 143.061 128.324 143.05 127.9C143.05 127.73 143.05 127.56 143.05 127.36C143.05 127.16 143.05 126.95 143.05 126.74C143.05 126.53 143.05 126.32 143.05 126.11C143.05 125.9 143 125.73 143.05 125.56ZM147.49 123.06C147.51 122.839 147.48 122.616 147.402 122.408C147.324 122.201 147.2 122.013 147.04 121.86C146.862 121.774 146.664 121.739 146.467 121.76C146.271 121.781 146.085 121.858 145.93 121.98C145.465 122.26 145.085 122.661 144.83 123.14C144.544 123.67 144.386 124.259 144.37 124.86C144.37 125.2 144.37 125.57 144.37 125.97C144.37 126.37 144.37 126.74 144.37 127.07C144.349 127.289 144.38 127.51 144.46 127.715C144.539 127.919 144.666 128.103 144.83 128.25C145.004 128.34 145.202 128.377 145.398 128.356C145.593 128.335 145.778 128.256 145.93 128.13C146.379 127.854 146.749 127.464 147 127C147.282 126.473 147.436 125.887 147.45 125.29C147.45 124.95 147.45 124.58 147.45 124.17C147.45 123.76 147.5 123.38 147.49 123.06Z" fill="#37474F"/>
<path d="M154.539 115.51C154.567 115.49 154.6 115.479 154.634 115.479C154.669 115.479 154.702 115.49 154.729 115.51C154.758 115.534 154.78 115.565 154.794 115.6C154.808 115.635 154.813 115.673 154.809 115.71V116.64C154.805 116.741 154.778 116.841 154.729 116.93C154.688 117.017 154.622 117.09 154.539 117.14L152.779 118.14V125.31C152.775 125.411 152.748 125.511 152.699 125.6C152.658 125.687 152.592 125.76 152.509 125.81L151.719 126.27C151.692 126.29 151.659 126.301 151.624 126.301C151.59 126.301 151.557 126.29 151.529 126.27C151.5 126.246 151.477 126.215 151.463 126.18C151.449 126.145 151.445 126.107 151.449 126.07V118.91L149.689 119.91C149.662 119.93 149.629 119.941 149.594 119.941C149.56 119.941 149.527 119.93 149.499 119.91C149.472 119.885 149.451 119.854 149.437 119.819C149.423 119.784 149.417 119.747 149.419 119.71V118.78C149.422 118.675 149.45 118.572 149.499 118.48C149.541 118.393 149.607 118.32 149.689 118.27L154.539 115.51Z" fill="#37474F"/>
<path d="M162.23 111.07C162.256 111.051 162.288 111.04 162.32 111.04C162.352 111.04 162.384 111.051 162.41 111.07C162.439 111.094 162.462 111.125 162.476 111.16C162.49 111.195 162.495 111.233 162.49 111.27V112.2C162.492 112.302 162.464 112.403 162.41 112.49C162.369 112.577 162.307 112.653 162.23 112.71L159.1 114.51V117.05L162.03 115.36C162.057 115.338 162.09 115.326 162.125 115.326C162.16 115.326 162.193 115.338 162.22 115.36C162.248 115.387 162.27 115.42 162.284 115.456C162.298 115.492 162.303 115.531 162.3 115.57V116.49C162.297 116.595 162.27 116.698 162.22 116.79C162.179 116.877 162.113 116.95 162.03 117L159.1 118.69V121.69C159.096 121.791 159.068 121.891 159.02 121.98C158.982 122.066 158.919 122.139 158.84 122.19L158.04 122.65C158.014 122.669 157.982 122.68 157.95 122.68C157.918 122.68 157.886 122.669 157.86 122.65C157.83 122.627 157.806 122.596 157.792 122.561C157.778 122.526 157.774 122.487 157.78 122.45V114C157.778 113.894 157.806 113.79 157.86 113.7C157.898 113.614 157.961 113.541 158.04 113.49L162.23 111.07Z" fill="#37474F"/>
<path d="M163.32 113.86C163.341 113.354 163.411 112.852 163.53 112.36C163.65 111.861 163.828 111.378 164.06 110.92C164.304 110.464 164.599 110.038 164.94 109.65C165.306 109.253 165.731 108.916 166.2 108.65C166.575 108.41 166.999 108.256 167.44 108.2C167.757 108.172 168.074 108.261 168.33 108.45C168.581 108.669 168.768 108.953 168.87 109.27C169 109.678 169.071 110.102 169.08 110.53C169.08 110.69 169.08 110.87 169.08 111.07V112.31C169.08 112.51 169.08 112.7 169.08 112.87C169.059 113.376 168.989 113.878 168.87 114.37C168.751 114.866 168.573 115.346 168.34 115.8C168.101 116.261 167.802 116.688 167.45 117.07C167.086 117.465 166.665 117.802 166.2 118.07C165.819 118.313 165.389 118.467 164.94 118.52C164.627 118.55 164.314 118.464 164.06 118.28C163.805 118.066 163.62 117.781 163.53 117.46C163.403 117.055 163.332 116.634 163.32 116.21C163.32 116.04 163.32 115.86 163.32 115.66V114.42C163.3 114.21 163.31 114 163.32 113.86ZM167.76 111.36C167.781 111.138 167.75 110.914 167.67 110.706C167.591 110.498 167.464 110.311 167.3 110.16C167.125 110.07 166.928 110.033 166.732 110.054C166.536 110.075 166.351 110.154 166.2 110.28C165.731 110.555 165.35 110.957 165.1 111.44C164.813 111.969 164.656 112.558 164.64 113.16C164.64 113.5 164.64 113.87 164.64 114.27C164.64 114.67 164.64 115.04 164.64 115.37C164.619 115.589 164.65 115.81 164.73 116.015C164.81 116.219 164.937 116.403 165.1 116.55C165.275 116.64 165.473 116.677 165.668 116.656C165.864 116.635 166.049 116.556 166.2 116.43C166.664 116.153 167.044 115.755 167.3 115.28C167.586 114.754 167.743 114.168 167.76 113.57C167.76 113.23 167.76 112.86 167.76 112.45C167.76 112.04 167.77 111.68 167.76 111.36Z" fill="#37474F"/>
<path d="M175.68 103.31C175.707 103.288 175.74 103.276 175.775 103.276C175.81 103.276 175.843 103.288 175.87 103.31C175.897 103.337 175.917 103.37 175.93 103.407C175.942 103.443 175.945 103.482 175.94 103.52V108.88C175.945 109.405 175.888 109.929 175.77 110.44C175.652 110.936 175.474 111.417 175.24 111.87C175.001 112.319 174.705 112.736 174.36 113.11C174 113.5 173.586 113.837 173.13 114.11C172.757 114.346 172.337 114.499 171.9 114.56C171.591 114.604 171.276 114.529 171.02 114.35C170.765 114.134 170.583 113.844 170.5 113.52C170.374 113.078 170.316 112.619 170.33 112.16V106.8C170.33 106.699 170.354 106.6 170.4 106.51C170.444 106.422 170.51 106.347 170.59 106.29L171.39 105.83C171.416 105.811 171.448 105.8 171.48 105.8C171.513 105.8 171.544 105.811 171.57 105.83C171.598 105.857 171.62 105.89 171.634 105.926C171.648 105.962 171.653 106.001 171.65 106.04V111.33C171.642 111.617 171.679 111.904 171.76 112.18C171.808 112.359 171.914 112.517 172.06 112.63C172.202 112.713 172.369 112.742 172.53 112.71C172.742 112.67 172.946 112.592 173.13 112.48C173.349 112.353 173.55 112.198 173.73 112.02C173.92 111.835 174.082 111.623 174.21 111.39C174.345 111.137 174.449 110.868 174.52 110.59C174.596 110.262 174.633 109.927 174.63 109.59V104.29C174.634 104.189 174.662 104.089 174.71 104C174.749 103.911 174.815 103.837 174.9 103.79L175.68 103.31Z" fill="#37474F"/>
<path d="M181.879 108.88C181.84 108.903 181.795 108.915 181.749 108.915C181.704 108.915 181.659 108.903 181.619 108.88L181.489 108.77L178.749 105V110.38C178.747 110.485 178.719 110.588 178.669 110.68C178.631 110.769 178.564 110.843 178.479 110.89L177.689 111.35C177.661 111.369 177.628 111.379 177.594 111.379C177.561 111.379 177.528 111.369 177.499 111.35C177.472 111.325 177.451 111.294 177.437 111.259C177.423 111.224 177.417 111.187 177.419 111.15V102.7C177.424 102.599 177.451 102.499 177.499 102.41C177.544 102.325 177.609 102.253 177.689 102.2L178.379 101.8C178.489 101.73 178.569 101.73 178.629 101.8C178.677 101.832 178.72 101.869 178.759 101.91L181.499 105.76V100.3C181.502 100.195 181.53 100.092 181.579 100C181.621 99.9128 181.687 99.8398 181.769 99.79L182.559 99.33C182.587 99.3097 182.62 99.2987 182.654 99.2987C182.689 99.2987 182.722 99.3097 182.749 99.33C182.777 99.3553 182.798 99.3863 182.812 99.4209C182.826 99.4555 182.832 99.4928 182.829 99.53V108C182.825 108.101 182.798 108.201 182.749 108.29C182.708 108.377 182.642 108.45 182.559 108.5L181.879 108.88Z" fill="#37474F"/>
<path d="M187 96.74C187.387 96.5056 187.814 96.3461 188.26 96.27C188.572 96.228 188.889 96.3028 189.15 96.48C189.415 96.689 189.607 96.9758 189.7 97.3C189.843 97.7395 189.921 98.1978 189.93 98.66C189.93 99.29 189.93 99.94 189.93 100.6C189.91 101.147 189.833 101.69 189.7 102.22C189.585 102.725 189.403 103.213 189.16 103.67C188.923 104.118 188.627 104.531 188.28 104.9C187.921 105.292 187.507 105.629 187.05 105.9L184.58 107.32C184.555 107.341 184.523 107.353 184.49 107.353C184.457 107.353 184.425 107.341 184.4 107.32C184.37 107.295 184.346 107.262 184.332 107.225C184.318 107.189 184.314 107.149 184.32 107.11V98.65C184.318 98.5476 184.346 98.4469 184.4 98.36C184.438 98.2711 184.5 98.1948 184.58 98.14L187 96.74ZM188.61 99.42C188.605 99.182 188.565 98.946 188.49 98.72C188.436 98.5439 188.332 98.3874 188.19 98.27C188.118 98.2155 188.035 98.176 187.948 98.1537C187.86 98.1313 187.769 98.1267 187.68 98.14C187.421 98.1798 187.172 98.2716 186.95 98.41L185.64 99.17V105.05L187 104.26C187.26 104.113 187.496 103.928 187.7 103.71C187.897 103.503 188.063 103.267 188.19 103.01C188.324 102.757 188.425 102.489 188.49 102.21C188.56 101.932 188.6 101.647 188.61 101.36C188.68 100.7 188.68 100.06 188.65 99.42H188.61Z" fill="#37474F"/>
</svg>
