<svg width="500" height="500" viewBox="0 0 500 500" fill="none" xmlns="http://www.w3.org/2000/svg">
<path d="M467.6 251.91C462.67 293.71 443.6 342.32 405.46 364.64C347.87 398.39 352.69 450.28 240.27 472.84C223.876 476.209 207.165 477.788 190.43 477.55C182.239 477.399 174.066 476.731 165.96 475.55C94.5098 465.12 46.4298 415.46 28.7898 355.5C5.57977 276.66 51.9298 225 82.6498 193.94C113.37 162.88 135.88 65.9399 246.22 42.9399C263.05 39.3282 280.24 37.6706 297.45 37.9999C336.71 38.9999 379.53 51.86 409.16 78.76C411.38 80.76 413.546 82.8533 415.66 85.04C456.84 127.33 474.34 194.92 467.6 251.91Z" fill="#FF8400"/>
<path opacity="0.7" d="M467.6 251.91C462.67 293.71 443.6 342.32 405.46 364.64C347.87 398.39 352.69 450.28 240.27 472.84C223.876 476.209 207.165 477.788 190.43 477.55C182.239 477.399 174.066 476.731 165.96 475.55C94.5098 465.12 46.4298 415.46 28.7898 355.5C5.57977 276.66 51.9298 225 82.6498 193.94C113.37 162.88 135.88 65.9399 246.22 42.9399C263.05 39.3282 280.24 37.6706 297.45 37.9999C336.71 38.9999 379.53 51.86 409.16 78.76C411.38 80.76 413.546 82.8533 415.66 85.04C456.84 127.33 474.34 194.92 467.6 251.91Z" fill="white"/>
<path d="M22.26 265.78C25.37 267.14 33 267 33 267C33 267 31.36 262 31.22 261.72C29.53 258.2 24.25 252.44 20 253C19.2901 253.116 18.6125 253.38 18.0112 253.775C17.4099 254.17 16.8984 254.687 16.5098 255.292C16.1213 255.898 15.8645 256.578 15.756 257.289C15.6475 258 15.6897 258.726 15.88 259.42C16.56 262.42 19.61 264.63 22.26 265.78Z" fill="#263238"/>
<path d="M24.8799 287.81C28.1099 288.28 34.8799 286.31 35.4299 286.16C36.5509 290.043 37.9273 293.848 39.5499 297.55C40.4799 299.71 41.4899 301.86 42.5499 304C41.9299 303.09 41.3699 302.28 41.2799 302.18C38.7499 299.25 32.1399 295.09 28.1499 296.78C27.494 297.079 26.9086 297.513 26.432 298.053C25.9553 298.594 25.5982 299.229 25.3839 299.917C25.1697 300.605 25.1031 301.331 25.1885 302.046C25.274 302.762 25.5096 303.452 25.8799 304.07C27.3499 306.75 30.8799 308.07 33.7399 308.49C36.5999 308.91 42.4599 307.35 43.9899 306.92C44.3999 307.73 44.7999 308.55 45.2099 309.37C47.2099 313.28 49.1499 317.18 50.9699 321.06C51.6199 322.43 52.1999 323.8 52.7899 325.17C52.2399 324.36 51.7899 323.69 51.6799 323.59C49.1499 320.67 42.5399 316.5 38.5499 318.2C37.8965 318.5 37.3135 318.934 36.8387 319.474C36.364 320.014 36.008 320.648 35.794 321.335C35.5799 322.021 35.5126 322.745 35.5963 323.459C35.68 324.173 35.9129 324.862 36.2799 325.48C37.7499 328.16 41.2799 329.48 44.1399 329.9C46.9999 330.32 52.2899 328.9 54.1399 328.41C54.6999 329.83 55.2699 331.25 55.7399 332.65C56.0499 333.65 56.4099 334.52 56.6599 335.51C56.9099 336.5 57.1999 337.44 57.4699 338.39C57.9099 340.24 58.3799 342.15 58.7699 343.96C59.0499 345.23 59.2899 346.43 59.5399 347.65C58.9199 346.28 57.6399 343.65 57.5399 343.42C55.4899 340.14 49.5399 335.02 45.3799 336.09C44.6793 336.284 44.0279 336.625 43.4687 337.089C42.9094 337.554 42.4551 338.132 42.1357 338.785C41.8162 339.438 41.6389 340.151 41.6155 340.878C41.5921 341.604 41.7232 342.328 41.9999 343C42.9999 345.87 46.3399 347.72 49.0999 348.56C52.1499 349.49 58.8799 348.64 59.7199 348.56C60.1299 350.56 60.4999 352.56 60.8199 354.39C61.5499 358.49 62.0899 362.16 62.4999 365.27H65.3399C64.8499 362.05 64.1999 358.22 63.3399 353.92C62.9299 351.92 62.4599 349.7 61.9599 347.46C63.9895 346.651 65.9696 345.722 67.8899 344.68C70.0999 347.08 75.7899 349.89 76.5199 350.25C75.7499 352.15 74.9799 353.99 74.2199 355.72C72.6499 359.33 71.1599 362.54 69.8399 365.27H72.9099C74.0399 362.75 75.2899 359.89 76.5899 356.72C77.3799 354.79 78.1899 352.72 78.9999 350.57C79.8199 350.74 86.4799 352.1 89.5899 351.4C92.4099 350.76 95.8299 349.17 97.0899 346.4C97.4076 345.754 97.5861 345.049 97.6139 344.33C97.6418 343.611 97.5183 342.894 97.2515 342.226C96.9848 341.557 96.5806 340.952 96.0653 340.45C95.55 339.948 94.9349 339.559 94.2599 339.31C90.1499 337.93 83.8799 342.6 81.5799 345.71C81.4499 345.89 80.1999 348.05 79.4399 349.42C79.7599 348.55 80.0899 347.7 80.4399 346.8C81.0899 345.01 81.6899 343.21 82.3499 341.27C82.6299 340.32 82.9199 339.37 83.1999 338.4C83.4799 337.43 83.7099 336.4 83.9799 335.4C84.5399 333.06 84.9799 330.65 85.3899 328.22C86.9499 328.79 92.5399 330.74 95.3899 330.53C98.2399 330.32 101.89 329.27 103.56 326.71C103.972 326.119 104.255 325.449 104.392 324.741C104.528 324.034 104.514 323.306 104.351 322.605C104.188 321.903 103.879 321.244 103.445 320.67C103.01 320.095 102.46 319.618 101.83 319.27C97.9799 317.27 91.0799 320.95 88.3399 323.68C88.1699 323.85 86.4199 326.03 85.4799 327.24C85.7099 325.78 85.9499 324.32 86.1299 322.83C86.6699 318.54 87.0699 314.17 87.4999 309.83C87.6299 308.49 87.7699 307.17 87.9099 305.83C88.4699 306.04 95.0599 308.49 98.2999 308.27C101.19 308.06 104.8 307 106.47 304.44C106.884 303.851 107.169 303.182 107.307 302.476C107.444 301.769 107.432 301.042 107.269 300.341C107.107 299.64 106.799 298.981 106.365 298.407C105.931 297.833 105.38 297.357 104.75 297.01C100.9 295.01 93.9899 298.68 91.2499 301.41C91.0499 301.62 88.5399 304.76 87.9399 305.59C88.2499 302.66 88.5799 299.75 89.0299 296.89C89.6126 293.023 90.4477 289.198 91.5299 285.44C91.7799 285.54 98.6499 288.14 101.98 287.9C104.86 287.7 108.48 286.64 110.14 284.08C110.554 283.49 110.839 282.82 110.977 282.113C111.115 281.406 111.102 280.678 110.94 279.976C110.778 279.274 110.469 278.615 110.035 278.04C109.601 277.465 109.051 276.988 108.42 276.64C104.57 274.64 97.6699 278.32 94.9199 281.05C94.7099 281.26 92.0099 284.64 91.5599 285.29C91.6299 285.07 91.6699 284.84 91.7399 284.62C92.9265 280.886 94.4425 277.265 96.2699 273.8C97.2699 271.87 98.2699 270.08 99.3699 268.36C100.6 268.98 106.25 271.72 109.26 271.84C112.27 271.96 115.86 271.3 117.8 268.94C118.276 268.4 118.632 267.765 118.847 267.078C119.061 266.391 119.129 265.667 119.045 264.952C118.961 264.237 118.727 263.547 118.36 262.929C117.992 262.31 117.498 261.775 116.91 261.36C113.29 258.96 106.03 261.85 103.01 264.26C102.84 264.39 101.32 265.91 100.22 267.03C100.71 266.26 101.22 265.46 101.69 264.73C103.5 262 105.33 259.62 106.96 257.51C107.9 256.33 108.78 255.27 109.61 254.29C111.13 254.29 117.26 254.08 119.94 252.82C122.62 251.56 125.55 249.3 126.18 246.31C126.352 245.611 126.375 244.884 126.248 244.176C126.121 243.468 125.846 242.794 125.441 242.199C125.037 241.604 124.511 241.1 123.899 240.722C123.288 240.343 122.603 240.097 121.89 240C117.58 239.53 112.46 245.44 110.89 249C110.75 249.31 109.18 254.33 109.25 254.33H109.35C108.53 255.25 107.67 256.25 106.75 257.33C105.06 259.4 103.18 261.75 101.3 264.45C99.2425 267.337 97.356 270.342 95.6499 273.45C93.7228 276.924 92.1065 280.561 90.8199 284.32C90.8232 284.367 90.8232 284.413 90.8199 284.46C90.8199 283.19 90.8199 279.64 90.7499 279.36C90.2599 275.53 87.0399 268.41 82.7499 267.62C82.0391 267.508 81.3126 267.547 80.618 267.735C79.9233 267.923 79.2761 268.255 78.7184 268.71C78.1608 269.165 77.7053 269.732 77.3816 270.375C77.0579 271.017 76.8733 271.721 76.8399 272.44C76.5899 275.44 78.8399 278.54 80.9499 280.44C83.3799 282.62 90.1299 284.72 90.6699 284.88C89.4564 288.735 88.5042 292.667 87.8199 296.65C87.3999 298.97 87.0599 301.32 86.7399 303.65C86.7399 302.55 86.7399 301.57 86.7399 301.43C86.2399 297.59 83.0199 290.43 78.7399 289.69C78.0291 289.578 77.3026 289.617 76.608 289.805C75.9133 289.993 75.2661 290.325 74.7084 290.78C74.1508 291.235 73.6953 291.802 73.3716 292.445C73.0479 293.087 72.8633 293.791 72.8299 294.51C72.5799 297.51 74.8299 300.61 76.9399 302.51C79.0499 304.41 84.8499 306.37 86.3699 306.86C86.2499 307.76 86.1299 308.67 86.0199 309.57C85.4999 313.92 85.0199 318.26 84.3799 322.51C84.1699 324 83.8999 325.51 83.6299 326.93C83.6299 325.93 83.6299 325.14 83.6299 325.01C83.1299 321.18 79.9199 314.01 75.6299 313.27C74.9185 313.158 74.1916 313.198 73.4964 313.385C72.8012 313.573 72.1534 313.905 71.5949 314.36C71.0365 314.814 70.5801 315.381 70.2553 316.024C69.9305 316.667 69.7447 317.371 69.7099 318.09C69.4599 321.14 71.7099 324.19 73.8299 326.09C75.9499 327.99 81.1799 329.77 82.9799 330.35C82.6599 331.84 82.3499 333.35 81.9799 334.77C81.7099 335.77 81.5099 336.7 81.1699 337.67C80.8299 338.64 80.5599 339.57 80.2599 340.51C79.5999 342.3 78.9399 344.15 78.2599 345.88C77.7899 347.09 77.3299 348.23 76.8699 349.38C77.0999 347.89 77.4999 344.97 77.4999 344.73C77.4397 341.305 76.4959 337.953 74.7599 335C74.7718 334.622 74.7484 334.244 74.6899 333.87C74.6013 333.155 74.3629 332.467 73.9902 331.851C73.6176 331.235 73.1191 330.704 72.5274 330.293C71.9356 329.883 71.2639 329.602 70.5561 329.468C69.8484 329.335 69.1204 329.353 68.4199 329.52C64.2399 330.63 61.5799 337.98 61.4199 341.85C61.4199 342.07 61.5599 344.56 61.6799 346.13C61.4699 345.22 61.2699 344.33 61.0499 343.4C60.6099 341.54 60.1099 339.71 59.5899 337.73C59.3099 336.79 59.0199 335.83 58.7199 334.87C58.4199 333.91 58.0499 332.87 57.7199 331.94C56.8899 329.68 55.9499 327.42 54.9399 325.17C56.5599 324.78 62.2899 323.32 64.5999 321.55C66.9099 319.78 69.3199 316.92 69.2999 313.86C69.3207 313.14 69.1892 312.424 68.9142 311.758C68.6392 311.092 68.2267 310.492 67.7039 309.996C67.181 309.501 66.5594 309.121 65.8798 308.882C65.2002 308.643 64.4778 308.551 63.7599 308.61C59.4499 309.08 55.7599 315.94 54.9299 319.73C54.9299 319.96 54.6299 322.73 54.5199 324.28C53.8999 322.93 53.2999 321.58 52.6299 320.28C50.6999 316.4 48.6299 312.54 46.6299 308.67C45.9999 307.49 45.3899 306.3 44.7699 305.12C45.3499 304.98 52.1999 303.39 54.7699 301.41C57.0699 299.66 59.4999 296.78 59.4799 293.72C59.4991 293 59.3666 292.285 59.091 291.62C58.8154 290.955 58.403 290.355 57.8804 289.86C57.3579 289.365 56.737 288.985 56.0581 288.746C55.3792 288.506 54.6575 288.412 53.9399 288.47C49.6299 288.94 45.9399 295.8 45.1099 299.59C45.0499 299.87 44.6899 303.88 44.6499 304.9C43.2899 302.29 41.9599 299.67 40.7599 297.04C39.1149 293.495 37.7019 289.848 36.5299 286.12C36.7999 286.06 43.9599 284.43 46.5999 282.4C48.8999 280.64 51.3299 277.77 51.3099 274.71C51.3291 273.99 51.1966 273.275 50.921 272.61C50.6454 271.945 50.233 271.345 49.7104 270.85C49.1879 270.355 48.567 269.975 47.8881 269.736C47.2092 269.496 46.4875 269.402 45.7699 269.46C41.4599 269.93 37.7699 276.79 36.9399 280.58C36.8799 280.88 36.4899 285.18 36.4799 285.97C36.4099 285.75 36.3199 285.53 36.2599 285.32C35.1653 281.551 34.409 277.693 33.9999 273.79C33.7599 271.63 33.6499 269.56 33.5899 267.55C34.9499 267.38 41.1799 266.55 43.7599 264.99C46.3399 263.43 48.9699 260.9 49.2799 257.86C49.3833 257.143 49.3335 256.412 49.1338 255.715C48.9341 255.018 48.589 254.372 48.1213 253.818C47.6536 253.264 47.0739 252.816 46.4204 252.503C45.7669 252.189 45.0544 252.018 44.3299 252C39.9999 252 35.5299 258.4 34.3299 262.08C34.2599 262.28 33.8299 264.39 33.5299 265.93C33.5299 265.02 33.5299 264.08 33.5299 263.21C33.5299 259.93 33.7499 256.93 33.9499 254.28C34.0799 252.77 34.2299 251.4 34.3799 250.13C35.6299 249.27 40.6399 245.73 42.1799 243.2C43.7199 240.67 44.9199 237.2 43.7899 234.33C43.5473 233.66 43.1677 233.047 42.6752 232.532C42.1827 232.016 41.5881 231.609 40.9295 231.336C40.2709 231.063 39.5626 230.931 38.8498 230.947C38.1371 230.963 37.4355 231.128 36.7899 231.43C32.9399 233.43 31.9199 241.17 32.5599 244.99C32.6199 245.31 34.0699 250.37 34.1399 250.33L34.2099 250.28C34.0399 251.5 33.8799 252.81 33.7199 254.28C33.4599 256.94 33.1799 259.94 33.1099 263.28C32.9837 266.822 33.0672 270.368 33.3599 273.9C33.6782 277.861 34.3475 281.787 35.3599 285.63V285.76C34.6799 284.69 32.6699 281.76 32.4899 281.55C29.9599 278.63 23.3499 274.46 19.3599 276.16C18.7058 276.452 18.1202 276.879 17.6408 277.411C17.1614 277.943 16.7988 278.57 16.5765 279.252C16.3541 279.933 16.277 280.653 16.3499 281.366C16.4228 282.078 16.6443 282.768 16.9999 283.39C18.4999 286.07 21.9999 287.4 24.8799 287.81Z" fill="#263238"/>
<path d="M99.1797 267.46C99.2497 267.46 100.56 262.4 100.61 262.07C101.14 258.24 99.9197 250.52 96.0197 248.64C95.3619 248.341 94.6486 248.185 93.9263 248.181C93.2039 248.178 92.489 248.327 91.8282 248.618C91.1674 248.91 90.5756 249.338 90.0917 249.874C89.6077 250.41 89.2424 251.043 89.0197 251.73C88.0197 254.6 89.2997 258.13 90.8697 260.55C92.7397 263.4 99.1797 267.45 99.1797 267.46Z" fill="#263238"/>
<path d="M89.3303 406.3H47.7603L42.5703 360.14H94.5303L89.3303 406.3Z" fill="white" stroke="#263238" stroke-linecap="round" stroke-linejoin="round"/>
<path d="M43.5205 368.6L44.0205 373.07H93.0705L93.5805 368.6H43.5205Z" fill="#263238"/>
<path d="M91.9699 382.91L92.4699 378.44H44.6299L45.1299 382.91H91.9699Z" fill="#263238"/>
<path opacity="0.3" d="M78.8001 131L114.93 94.8999C118.053 96.3124 121.508 96.827 124.907 96.3859C128.307 95.9448 131.516 94.5655 134.175 92.4026C136.834 90.2398 138.838 87.3788 139.963 84.1407C141.087 80.9026 141.287 77.4153 140.54 74.0699L126.16 88.4399C126.058 88.5427 125.936 88.6242 125.802 88.6799C125.669 88.7356 125.525 88.7642 125.38 88.7642C125.235 88.7642 125.092 88.7356 124.958 88.6799C124.824 88.6242 124.702 88.5427 124.6 88.4399L112.14 75.9999C112.037 75.8976 111.956 75.7761 111.9 75.6422C111.844 75.5084 111.816 75.3648 111.816 75.2199C111.816 75.0749 111.844 74.9313 111.9 74.7975C111.956 74.6636 112.037 74.5421 112.14 74.4399L126.52 60.0699C123.175 59.3231 119.687 59.5231 116.449 60.6473C113.211 61.7716 110.35 63.7757 108.187 66.4349C106.024 69.0941 104.645 72.3033 104.204 75.7025C103.763 79.1018 104.278 82.5567 105.69 85.6799L69.5601 121.78C66.439 120.381 62.9904 119.877 59.5994 120.324C56.2084 120.771 53.0085 122.152 50.357 124.313C47.7056 126.474 45.707 129.329 44.5844 132.56C43.4619 135.791 43.2596 139.271 44.0001 142.61L58.3801 128.24C58.4815 128.137 58.6021 128.056 58.7352 128C58.8682 127.945 59.0109 127.916 59.1551 127.916C59.2992 127.916 59.442 127.945 59.575 128C59.708 128.056 59.8287 128.137 59.9301 128.24L72.3501 140.7C72.4529 140.802 72.5345 140.924 72.5901 141.057C72.6458 141.191 72.6745 141.335 72.6745 141.48C72.6745 141.625 72.6458 141.768 72.5901 141.902C72.5345 142.036 72.4529 142.158 72.3501 142.26L58.0001 156.63C61.3465 157.376 64.8348 157.175 68.073 156.048C71.3113 154.921 74.1713 152.914 76.3318 150.252C78.4924 147.59 79.8679 144.378 80.3039 140.977C80.7399 137.576 80.2192 134.121 78.8001 131Z" stroke="black" stroke-linecap="round" stroke-linejoin="round"/>
<path opacity="0.3" d="M150.57 50.2799L139.57 46.6699L130.94 54.3899L133.32 65.7299L144.32 69.3299L153 61.6099L150.57 50.2799ZM142.89 62.4899L138.53 61.0599L137.59 56.5699L141.01 53.5699L145.36 54.9899L146.3 59.4799L142.89 62.4899Z" stroke="black" stroke-linecap="round" stroke-linejoin="round"/>
<path opacity="0.3" d="M397.78 294.38L361.65 330.51C358.526 329.087 355.066 328.563 351.66 329C348.254 329.436 345.037 330.813 342.372 332.978C339.706 335.143 337.698 338.008 336.572 341.252C335.447 344.496 335.249 347.989 336 351.34L350.42 337C350.523 336.897 350.644 336.815 350.778 336.76C350.912 336.704 351.055 336.675 351.2 336.675C351.345 336.675 351.489 336.704 351.623 336.76C351.757 336.815 351.878 336.897 351.98 337L364.44 349.47C364.543 349.571 364.624 349.692 364.68 349.825C364.735 349.958 364.764 350.101 364.764 350.245C364.764 350.389 364.735 350.532 364.68 350.665C364.624 350.798 364.543 350.918 364.44 351.02L350.06 365.4C353.406 366.147 356.893 365.947 360.131 364.822C363.369 363.698 366.23 361.694 368.393 359.035C370.556 356.376 371.935 353.166 372.376 349.767C372.818 346.368 372.303 342.913 370.89 339.79L407 303.62C410.124 305.032 413.578 305.547 416.978 305.106C420.377 304.665 423.586 303.285 426.245 301.123C428.905 298.96 430.909 296.099 432.033 292.861C433.157 289.623 433.357 286.135 432.61 282.79L418.23 297.17C418.128 297.273 418.007 297.354 417.873 297.41C417.739 297.466 417.595 297.494 417.45 297.494C417.305 297.494 417.162 297.466 417.028 297.41C416.894 297.354 416.773 297.273 416.67 297.17L404.21 284.71C404.108 284.608 404.026 284.486 403.97 284.352C403.915 284.218 403.886 284.075 403.886 283.93C403.886 283.785 403.915 283.641 403.97 283.507C404.026 283.374 404.108 283.252 404.21 283.15L418.59 268.77C415.245 268.023 411.758 268.223 408.52 269.347C405.281 270.472 402.421 272.476 400.258 275.135C398.095 277.794 396.715 281.003 396.274 284.403C395.833 287.802 396.348 291.257 397.76 294.38H397.78Z" stroke="black" stroke-linecap="round" stroke-linejoin="round"/>
<path opacity="0.3" d="M326 375.13L337 378.74L345.62 371.01L343.25 359.68L332.25 356.07L323.62 363.8L326 375.13ZM333.68 362.92L338.04 364.35L338.98 368.83L335.56 371.89L331.21 370.46L330.27 365.98L333.68 362.92Z" stroke="black" stroke-linecap="round" stroke-linejoin="round"/>
<path opacity="0.3" d="M378.25 131L414.38 94.8998C417.504 96.3151 420.96 96.8318 424.361 96.392C427.762 95.9521 430.973 94.5732 433.634 92.4099C436.295 90.2466 438.3 87.3845 439.424 84.145C440.549 80.9054 440.748 77.4165 440 74.0698L425.61 88.4398C425.509 88.5423 425.388 88.6237 425.255 88.6793C425.122 88.7348 424.98 88.7634 424.835 88.7634C424.691 88.7634 424.549 88.7348 424.416 88.6793C424.282 88.6237 424.162 88.5423 424.06 88.4398L411.59 75.9998C411.488 75.8976 411.406 75.7761 411.35 75.6422C411.295 75.5084 411.266 75.3648 411.266 75.2198C411.266 75.0749 411.295 74.9313 411.35 74.7975C411.406 74.6636 411.488 74.5421 411.59 74.4398L426 60.0498C422.655 59.3031 419.168 59.5031 415.93 60.6273C412.691 61.7516 409.831 63.7557 407.668 66.4149C405.505 69.0741 404.125 72.2833 403.684 75.6825C403.243 79.0818 403.758 82.5367 405.17 85.6598L369 121.78C365.877 120.367 362.422 119.853 359.023 120.294C355.624 120.735 352.415 122.114 349.755 124.277C347.096 126.44 345.092 129.301 343.968 132.539C342.844 135.777 342.644 139.264 343.39 142.61L357.77 128.24C357.873 128.137 357.994 128.055 358.128 128C358.262 127.944 358.405 127.915 358.55 127.915C358.695 127.915 358.839 127.944 358.973 128C359.107 128.055 359.228 128.137 359.33 128.24L371.8 140.7C371.903 140.802 371.985 140.924 372.04 141.057C372.096 141.191 372.125 141.335 372.125 141.48C372.125 141.625 372.096 141.768 372.04 141.902C371.985 142.036 371.903 142.158 371.8 142.26L357.42 156.63C360.769 157.383 364.261 157.187 367.504 156.063C370.748 154.939 373.613 152.933 375.777 150.269C377.942 147.606 379.32 144.391 379.757 140.987C380.194 137.582 379.672 134.124 378.25 131Z" stroke="black" stroke-linecap="round" stroke-linejoin="round"/>
<path opacity="0.3" d="M450 50.2799L439 46.6699L430.38 54.3899L432.75 65.7299L443.75 69.3299L452.37 61.6099L450 50.2799ZM442.32 62.4899L438 61.0599L437 56.5699L440.42 53.5699L444.77 54.9899L445.71 59.4799L442.32 62.4899Z" stroke="black" stroke-linecap="round" stroke-linejoin="round"/>
<path opacity="0.3" d="M469.88 133.68L458.88 130.08L450.25 137.8L452.63 149.13L463.63 152.74L472.26 145.01L469.88 133.68ZM462.2 145.89L457.84 144.47L456.9 140L460.32 136.94L464.67 138.37L465.61 142.86L462.2 145.89Z" stroke="black" stroke-linecap="round" stroke-linejoin="round"/>
<path opacity="0.3" d="M219.67 82.6L208.67 78.99L200.05 86.72L202.42 98.05L213.42 101.66L222.04 93.93L219.67 82.6ZM212 94.81L207.64 93.38L206.7 88.9L210.12 85.84L214.47 87.27L215.41 91.75L212 94.81Z" stroke="black" stroke-linecap="round" stroke-linejoin="round"/>
<path opacity="0.3" d="M199.82 342.75L188.82 339.14L180.2 346.86L182.58 358.19L193.58 361.8L202.2 354.08L199.82 342.75ZM192.13 355L187.78 353.57L186.84 349.08L190.25 346.02L194.6 347.45L195.6 351.94L192.13 355Z" stroke="black" stroke-linecap="round" stroke-linejoin="round"/>
<path opacity="0.3" d="M60.1503 202.41L49.1503 198.81L40.5303 206.53L42.9003 217.86L53.9003 221.47L62.5203 213.74L60.1503 202.41ZM52.4603 214.62L48.1103 213.2L47.1103 208.71L50.5303 205.65L54.8803 207.08L55.8803 211.57L52.4603 214.62Z" stroke="black" stroke-linecap="round" stroke-linejoin="round"/>
<path opacity="0.3" d="M138.63 352.69L174.75 316.56C177.873 317.977 181.33 318.494 184.731 318.055C188.132 317.615 191.343 316.236 194.003 314.072C196.664 311.909 198.668 309.046 199.791 305.805C200.914 302.565 201.111 299.076 200.36 295.73L186 310.11C185.898 310.213 185.777 310.294 185.643 310.35C185.509 310.406 185.365 310.434 185.22 310.434C185.075 310.434 184.932 310.406 184.798 310.35C184.664 310.294 184.543 310.213 184.44 310.11L172 297.65C171.898 297.548 171.816 297.426 171.76 297.292C171.705 297.159 171.676 297.015 171.676 296.87C171.676 296.725 171.705 296.581 171.76 296.448C171.816 296.314 171.898 296.192 172 296.09L186.37 281.71C183.025 280.963 179.538 281.163 176.299 282.287C173.061 283.412 170.2 285.416 168.038 288.075C165.875 290.734 164.495 293.943 164.054 297.343C163.613 300.742 164.128 304.197 165.54 307.32L129.42 343.45C126.297 342.037 122.842 341.523 119.443 341.964C116.044 342.405 112.835 343.784 110.175 345.947C107.516 348.11 105.512 350.971 104.388 354.209C103.264 357.447 103.064 360.935 103.81 364.28L118.18 349.9C118.283 349.797 118.404 349.716 118.538 349.66C118.672 349.604 118.815 349.576 118.96 349.576C119.105 349.576 119.249 349.604 119.383 349.66C119.517 349.716 119.638 349.797 119.74 349.9L132.2 362.36C132.303 362.462 132.385 362.584 132.44 362.718C132.496 362.851 132.525 362.995 132.525 363.14C132.525 363.285 132.496 363.429 132.44 363.562C132.385 363.696 132.303 363.818 132.2 363.92L117.8 378.3C121.146 379.047 124.633 378.847 127.871 377.723C131.109 376.598 133.97 374.594 136.133 371.935C138.296 369.276 139.675 366.067 140.116 362.667C140.557 359.268 140.043 355.813 138.63 352.69V352.69Z" stroke="black" stroke-linecap="round" stroke-linejoin="round"/>
<path opacity="0.3" d="M210.4 271.94L199.4 268.33L190.771 276.06L193.15 287.39L204.15 291L212.781 283.27L210.4 271.94ZM202.721 284.15L198.361 282.72L197.421 278.24L200.831 275.18L205.191 276.61L206.131 281.09L202.721 284.15Z" stroke="black" stroke-linecap="round" stroke-linejoin="round"/>
<path d="M259.63 295.89H232V407.35H259.63V295.89Z" fill="#263238" stroke="#FF8400" stroke-linecap="round" stroke-linejoin="round"/>
<path d="M427.17 112.03H78.5098V323.51H427.17V112.03Z" fill="#263238" stroke="#263238" stroke-linecap="round" stroke-linejoin="round"/>
<path d="M420.15 112.03H71.4902V323.51H420.15V112.03Z" fill="#FF8400" stroke="#263238" stroke-linecap="round" stroke-linejoin="round"/>
<path d="M407.58 119.65H84.0498V315.89H407.58V119.65Z" fill="white" stroke="#263238" stroke-linecap="round" stroke-linejoin="round"/>
<path d="M407.58 304.07H84.0498V315.89H407.58V304.07Z" fill="white" stroke="#263238" stroke-linecap="round" stroke-linejoin="round"/>
<path d="M247.33 394.84L144.9 401.46V408.13H346.74V401.46L247.33 394.84Z" fill="#263238" stroke="#263238" stroke-linecap="round" stroke-linejoin="round"/>
<path d="M407.58 119.65H84.0498V315.89H407.58V119.65Z" fill="white" stroke="#263238" stroke-linecap="round" stroke-linejoin="round"/>
<path d="M462.87 406.3H21.9404" stroke="#263238" stroke-linecap="round" stroke-linejoin="round"/>
<path d="M485.77 406.3H473.9" stroke="#263238" stroke-linecap="round" stroke-linejoin="round"/>
<path d="M398.33 282.83C398.33 282.83 399.99 341.83 400.83 352.1C401.67 362.37 404.17 389.4 404.73 394.41C405.29 399.42 404.17 413.62 404.17 413.62L402.78 415L403.89 422C403.89 422 394.98 427.57 390.53 429.24C386.08 430.91 391.64 433.13 395.53 433.69C399.351 434.331 403.265 434.129 407 433.1C411.46 431.99 417 430.04 419 429.76C421 429.48 422 427 422 423.92C422 420.84 421.72 420.58 422 419.18C422.28 417.78 420.6 411.95 420.32 410.56C420.04 409.17 424.22 377.71 423.39 367.69C422.56 357.67 422.27 344.03 422.27 342.64C422.27 341.25 421.72 326.77 421.72 326.77C421.72 326.77 426.45 358.77 427.01 359.9C427.57 361.03 436.75 407.49 437.01 409.72C437.27 411.95 436.17 414.45 436.45 416.12C436.73 417.79 438.12 422.8 438.12 422.8C438.12 422.8 437.28 430.32 434.78 433.66C432.28 437 431.72 439.78 433.11 440.9C434.5 442.02 437.56 442.01 441.18 441.18C444.8 440.35 444.8 440.9 448.18 438.11C451.56 435.32 452.63 427.26 452.63 426.42C452.63 425.58 454.03 422.8 454.03 419.74C454.03 416.68 454.03 418.07 452.91 413.62C451.79 409.17 452.08 391.91 451.8 381.89C451.52 371.87 448.18 351.82 448.18 347.89C448.18 343.96 446.51 285.81 446.51 285.81C446.51 285.81 419.77 294 398.33 282.83Z" fill="#263238" stroke="#263238" stroke-linecap="round" stroke-linejoin="round"/>
<path d="M410.73 424.35C408.252 424.321 405.851 423.486 403.89 421.97C403.89 421.97 394.98 427.54 390.53 429.21C386.08 430.88 391.64 433.1 395.53 433.66C399.349 434.31 403.263 434.119 407 433.1C411.46 431.99 417 430.04 419 429.76C421 429.48 422 427 422 423.92C422 422.63 421.95 421.84 421.91 421.25C418.82 422.55 413.69 424.48 410.73 424.35Z" fill="white" stroke="#263238" stroke-linecap="round" stroke-linejoin="round"/>
<path d="M417.8 426.57C412.75 426.97 406.95 433.1 399.21 432.23C395.83 431.942 392.518 431.115 389.4 429.78C387.31 431.35 392.08 433.17 395.54 433.66C399.355 434.309 403.266 434.118 407 433.1C411.46 431.99 417 430.04 419 429.76C420.41 429.56 421.38 428.18 421.81 426.28C420.82 426.34 419.56 426.43 417.8 426.57Z" fill="white" stroke="#263238" stroke-linecap="round" stroke-linejoin="round"/>
<path d="M446.89 426.37C445.265 426.388 443.654 426.082 442.149 425.469C440.645 424.856 439.279 423.948 438.13 422.8C438.13 422.8 437.29 430.32 434.79 433.66C432.29 437 431.73 439.78 433.12 440.9C434.51 442.02 437.57 442.01 441.19 441.18C444.81 440.35 444.81 440.9 448.19 438.11C451.57 435.32 452.64 427.26 452.64 426.42C452.691 425.995 452.795 425.579 452.95 425.18C451.035 425.996 448.971 426.401 446.89 426.37Z" fill="white" stroke="#263238" stroke-linecap="round" stroke-linejoin="round"/>
<path d="M448.15 438.11C449.63 436.88 450.68 434.6 451.38 432.37V432.43C450.237 434.266 448.723 435.843 446.936 437.06C445.149 438.278 443.127 439.109 441 439.5C438.136 440.284 435.092 440.09 432.35 438.95C432.307 439.311 432.351 439.676 432.48 440.016C432.609 440.356 432.818 440.659 433.09 440.9C434.48 442.01 437.54 442.01 441.16 441.18C444.78 440.35 444.81 440.9 448.15 438.11Z" fill="white" stroke="#263238" stroke-linecap="round" stroke-linejoin="round"/>
<path d="M397.69 281.06C397.69 281.06 396.89 284.94 398.5 286.88C400.11 288.82 406.58 293.02 421.94 293.19C437.3 293.36 443.77 290 446 288.5C448.23 287 447.29 280.58 447.29 280.58C440.003 283.662 432.239 285.465 424.34 285.91C412.08 286.4 397.69 281.06 397.69 281.06Z" fill="#162530" stroke="#263238" stroke-linecap="round" stroke-linejoin="round"/>
<path d="M411 210.14L396.89 202.8C396.89 202.8 379.62 187.68 371.13 182.07C362.64 176.46 355.44 178.33 354.86 185.24C354.28 192.15 383.5 215.03 388.86 219.35C394.22 223.67 395.34 225.83 395.34 225.83C395.34 225.83 396.06 264.4 396.34 270.59C396.62 276.78 396.34 280.95 398.34 282.83C400.34 284.71 409.71 290.45 422.81 289.73C435.91 289.01 441.81 287.73 444.26 285.73C446.71 283.73 448.14 281.99 448.14 278.54C448.14 275.09 451.87 229 451.87 229C451.87 229 477.78 211.3 484.4 205.4C491.02 199.5 491.46 191.15 487.14 190.28C482.82 189.41 471.88 194.75 467.56 197.48C463.24 200.21 449.43 204.53 444.68 205.83C439.93 207.13 435.18 208.56 435.18 208.56C435.18 208.56 423.23 211.86 411 210.14Z" fill="#FF8400" stroke="#263238" stroke-linecap="round" stroke-linejoin="round"/>
<path d="M395.31 225.83L390.93 209.98" stroke="#263238" stroke-linecap="round" stroke-linejoin="round"/>
<path d="M393.43 220.15L386.78 205.82" stroke="#263238" stroke-linecap="round" stroke-linejoin="round"/>
<path d="M451.87 228.99L455.53 215.38" stroke="#263238" stroke-linecap="round" stroke-linejoin="round"/>
<path d="M453.04 225.56L458.03 216.62" stroke="#263238" stroke-linecap="round" stroke-linejoin="round"/>
<path d="M376.81 190.87L367.67 195.85" stroke="#263238" stroke-linecap="round" stroke-linejoin="round"/>
<path d="M469.04 202.71L473.4 206.24" stroke="#263238" stroke-linecap="round" stroke-linejoin="round"/>
<path d="M411.72 227L408.12 250.25C408.101 250.372 408.107 250.497 408.137 250.617C408.167 250.737 408.22 250.849 408.293 250.949C408.367 251.048 408.459 251.132 408.565 251.196C408.67 251.259 408.788 251.302 408.91 251.32C409.032 251.34 409.157 251.335 409.278 251.306C409.398 251.277 409.511 251.224 409.611 251.15C409.711 251.077 409.795 250.984 409.858 250.877C409.921 250.771 409.963 250.653 409.98 250.53L413.3 228L411.72 227Z" fill="white" stroke="#263238" stroke-linecap="round" stroke-linejoin="round"/>
<path d="M425.68 227.84L423.77 250.65C423.756 250.802 423.776 250.955 423.827 251.098C423.878 251.242 423.96 251.373 424.066 251.482C424.173 251.591 424.301 251.676 424.443 251.731C424.585 251.786 424.738 251.809 424.89 251.8C425.15 251.786 425.396 251.676 425.581 251.491C425.765 251.307 425.875 251.061 425.89 250.8L427.42 227.4L425.68 227.84Z" fill="white" stroke="#263238" stroke-linecap="round" stroke-linejoin="round"/>
<path d="M410.13 209.13C410.13 209.13 404.95 214.89 404.52 217.19C404.09 219.49 408.12 222.37 408.12 222.37C408.12 222.37 406.12 222.95 407.54 224.24C408.96 225.53 417.33 232.02 419.78 232.02C422.23 232.02 425.25 228.13 432.78 226.4C440.31 224.67 445.59 216.9 445.02 213.3C445 212.85 444.882 212.41 444.674 212.011C444.466 211.611 444.173 211.262 443.816 210.987C443.458 210.713 443.045 210.52 442.606 210.422C442.166 210.324 441.71 210.323 441.27 210.42C441.27 210.42 442.71 207.26 440.41 205.82C438.11 204.38 432.78 204.38 430.19 204.67C427.6 204.96 416.61 205.53 410.13 209.13Z" fill="#162530" stroke="#263238" stroke-linecap="round" stroke-linejoin="round"/>
<path d="M431.85 223C430.933 223.747 429.978 224.448 428.99 225.1" stroke="#263238" stroke-linecap="round" stroke-linejoin="round"/>
<path d="M441.22 210.42C441.22 210.42 437.77 217.05 435.22 219.92" stroke="#263238" stroke-linecap="round" stroke-linejoin="round"/>
<path d="M408.12 222.37L411.72 224.39" stroke="#263238" stroke-linecap="round" stroke-linejoin="round"/>
<path d="M357.88 191.28C356.3 189.84 352.27 185.81 355.44 180.92C358.61 176.03 363.5 177.75 367.53 177.75C371.56 177.75 400.63 184.8 400.63 184.8C400.63 184.8 406.82 174.15 408.12 172.28C409.42 170.41 414.45 170.28 414.45 170.28C414.45 170.28 415.6 170.71 415.03 172.15C414.46 173.59 413.44 172.87 413.16 176.15C412.88 179.43 411.28 191.26 408.55 192.7C405.82 194.14 398.62 192.41 398.62 192.41L365.94 194" fill="#BDBDBD"/>
<path d="M357.88 191.28C356.3 189.84 352.27 185.81 355.44 180.92C358.61 176.03 363.5 177.75 367.53 177.75C371.56 177.75 400.63 184.8 400.63 184.8C400.63 184.8 406.82 174.15 408.12 172.28C409.42 170.41 414.45 170.28 414.45 170.28C414.45 170.28 415.6 170.71 415.03 172.15C414.46 173.59 413.44 172.87 413.16 176.15C412.88 179.43 411.28 191.26 408.55 192.7C405.82 194.14 398.62 192.41 398.62 192.41L365.94 194" stroke="#263238" stroke-linecap="round" stroke-linejoin="round"/>
<path d="M365.94 194L380 193.31C379.206 192.63 378.568 191.786 378.13 190.837C377.691 189.888 377.463 188.856 377.46 187.81C377.515 185.013 378.399 182.295 380 180C374.2 178.73 369 177.71 367.51 177.71C363.51 177.71 358.58 175.98 355.42 180.88C352.26 185.78 356.28 189.8 357.86 191.24" fill="#162530"/>
<path d="M365.94 194L380 193.31C379.206 192.63 378.568 191.786 378.13 190.837C377.691 189.888 377.463 188.856 377.46 187.81C377.515 185.013 378.399 182.295 380 180C374.2 178.73 369 177.71 367.51 177.71C363.51 177.71 358.58 175.98 355.42 180.88C352.26 185.78 356.28 189.8 357.86 191.24" stroke="#263238" stroke-linecap="round" stroke-linejoin="round"/>
<path d="M412.72 171.27C412.72 171.27 406.72 183.22 406.97 184.66C407.22 186.1 407.97 187.83 407.97 188.4C407.97 188.97 404.81 196.32 405.38 198.33C405.95 200.34 408.38 209.71 410.71 213.02C413.04 216.33 414.59 216.33 414.59 216.33C414.59 216.33 413.44 224.24 414.31 226.55C415.18 228.86 418.05 232.55 419.78 232.02C421.51 231.49 431 220.36 431.87 217.02C432.74 213.68 433.74 202.33 433.74 202.33C433.74 202.33 435.47 199.17 436.47 197.73C439.599 193.943 441.419 189.246 441.66 184.34C441.94 176.86 434.75 169.95 428.27 168.08C421.79 166.21 415 170 412.72 171.27Z" fill="#BDBDBD" stroke="#263238" stroke-linecap="round" stroke-linejoin="round"/>
<path d="M411.57 189.84C411.57 189.84 408.41 196.84 408.98 197.18C409.689 197.704 410.504 198.065 411.368 198.238C412.233 198.41 413.124 198.391 413.98 198.18C416.71 197.46 416.71 196.02 416.71 196.02" stroke="#263238" stroke-linecap="round" stroke-linejoin="round"/>
<path d="M414.37 204.81C414.77 205.81 414.57 206.89 413.94 207.13C413.31 207.37 412.48 206.72 412.08 205.68C411.68 204.64 411.88 203.6 412.51 203.36C413.14 203.12 414 203.77 414.37 204.81Z" fill="#263238"/>
<path d="M414.59 216.33C414.59 216.33 416.75 216.04 418.48 215.61C420.21 215.18 427.12 209.42 427.12 209.42L414 224.53L414.59 216.33Z" fill="#263238" stroke="#263238" stroke-linecap="round" stroke-linejoin="round"/>
<path d="M418.91 183.65C418.91 183.65 422.66 181.35 424.67 185.81" stroke="#263238" stroke-linecap="round" stroke-linejoin="round"/>
<path d="M412.87 183.8C412.257 183.366 411.501 183.183 410.757 183.289C410.013 183.395 409.338 183.782 408.87 184.37" stroke="#263238" stroke-linecap="round" stroke-linejoin="round"/>
<path d="M421.22 190.35C421.22 191.18 420.8 191.86 420.28 191.86C419.76 191.86 419.34 191.18 419.34 190.35C419.34 189.52 419.76 188.83 420.28 188.83C420.8 188.83 421.22 189.51 421.22 190.35Z" fill="#263238"/>
<path d="M410.049 190.95C410.524 190.95 410.909 190.332 410.909 189.57C410.909 188.808 410.524 188.19 410.049 188.19C409.574 188.19 409.189 188.808 409.189 189.57C409.189 190.332 409.574 190.95 410.049 190.95Z" fill="#263238"/>
<path d="M432.16 200.92C432.72 201.334 433.308 201.708 433.92 202.04C434.39 201.19 435.66 198.92 436.47 197.76C439.598 193.973 441.419 189.276 441.66 184.37C441.94 176.89 434.75 169.98 428.27 168.11C424.753 167.256 421.056 167.539 417.71 168.92C417.9 169.29 418.56 169.71 420.35 169.98C424.24 170.55 428.84 168.68 431.29 170.41C433.74 172.14 434.75 177.32 432.59 179.19C430.43 181.06 425.97 184.08 427.84 186.53C429.169 188.134 430.15 189.997 430.72 192C430.72 192.58 429.85 193.15 430.72 193.3C431.59 193.45 432.72 193.73 433.16 192.43C433.6 191.13 435.9 189.12 437.05 191.43C438.2 193.74 436.76 196.43 435.47 198.19C434.565 199.317 433.438 200.246 432.16 200.92Z" fill="#263238" stroke="#263238" stroke-linecap="round" stroke-linejoin="round"/>
<path d="M479.08 204.67L467.71 204.24C467.71 204.24 434.31 196.03 431.87 194.74C429.43 193.45 430 189.74 429.71 188.83C429.42 187.92 428.71 184.08 429.42 183.08C430.13 182.08 436.19 177.46 436.62 176.89C437.05 176.32 435.9 173.58 436.19 172.89C436.48 172.2 437.19 172.02 437.91 172.46C438.338 172.716 438.65 173.128 438.78 173.61C438.78 173.61 440.22 173.89 441.51 176.2C442.8 178.51 443.09 180.37 442.81 181.2C442.53 182.03 444.1 183.79 443.81 185.08C443.234 186.678 442.514 188.221 441.66 189.69C441.66 189.69 468.86 188.54 473.47 188.54C478.08 188.54 488.87 187.96 490.16 190.54C491.45 193.12 490.16 197.59 488 200.62" fill="#BDBDBD"/>
<path d="M479.08 204.67L467.71 204.24C467.71 204.24 434.31 196.03 431.87 194.74C429.43 193.45 430 189.74 429.71 188.83C429.42 187.92 428.71 184.08 429.42 183.08C430.13 182.08 436.19 177.46 436.62 176.89C437.05 176.32 435.9 173.58 436.19 172.89C436.48 172.2 437.19 172.02 437.91 172.46C438.338 172.716 438.65 173.128 438.78 173.61C438.78 173.61 440.22 173.89 441.51 176.2C442.8 178.51 443.09 180.37 442.81 181.2C442.53 182.03 444.1 183.79 443.81 185.08C443.234 186.678 442.514 188.221 441.66 189.69C441.66 189.69 468.86 188.54 473.47 188.54C478.08 188.54 488.87 187.96 490.16 190.54C491.45 193.12 490.16 197.59 488 200.62" stroke="#263238" stroke-linecap="round" stroke-linejoin="round"/>
<path d="M441.66 189.7L437.67 189.2" stroke="#263238" stroke-linecap="round" stroke-linejoin="round"/>
<path d="M438.78 173.58C438.78 173.58 440.58 177.16 440.16 178.2L439.75 179.2" stroke="#263238" stroke-linecap="round" stroke-linejoin="round"/>
<path d="M442.81 181.21C441.99 182.011 441.104 182.74 440.16 183.39" stroke="#263238" stroke-linecap="round" stroke-linejoin="round"/>
<path d="M488 200.64C490.16 197.64 491.46 193.15 490.16 190.56C488.86 187.97 478.22 188.56 473.56 188.56C474.103 189.779 474.399 191.092 474.432 192.426C474.464 193.76 474.233 195.086 473.75 196.33C472.47 200 468.86 202.55 466.4 203.92L467.71 204.25L479.08 204.68" fill="#162530"/>
<path d="M488 200.64C490.16 197.64 491.46 193.15 490.16 190.56C488.86 187.97 478.22 188.56 473.56 188.56C474.103 189.779 474.399 191.092 474.432 192.426C474.464 193.76 474.233 195.086 473.75 196.33C472.47 200 468.86 202.55 466.4 203.92L467.71 204.25L479.08 204.68" stroke="#263238" stroke-linecap="round" stroke-linejoin="round"/>
<g opacity="0.3">
<path d="M244 166.67C244.931 164.903 245.418 162.937 245.42 160.94C245.42 157.54 244.069 154.279 241.665 151.875C239.261 149.471 236 148.12 232.6 148.12C229.2 148.12 225.939 149.471 223.535 151.875C221.131 154.279 219.78 157.54 219.78 160.94C219.784 162.964 220.281 164.956 221.227 166.745C222.173 168.534 223.54 170.067 225.21 171.21C223.555 171.51 222.008 172.238 220.723 173.323C219.438 174.408 218.46 175.811 217.888 177.392C217.315 178.973 217.167 180.677 217.458 182.333C217.75 183.989 218.471 185.54 219.55 186.83C217.438 187.899 215.655 189.521 214.393 191.523C213.13 193.526 212.434 195.833 212.38 198.2C212.38 205.56 219.09 211.54 227.38 211.54C235.67 211.54 242.38 205.54 242.38 198.2C242.374 196.473 241.995 194.767 241.27 193.2C241.757 193.24 242.247 193.26 242.74 193.26C251.32 193.26 258.28 187.26 258.28 179.95C258.22 173 252 167.24 244 166.67Z" fill="black"/>
<path d="M216.55 150.35C221.046 150.35 224.69 146.705 224.69 142.21C224.69 137.714 221.046 134.07 216.55 134.07C212.055 134.07 208.41 137.714 208.41 142.21C208.41 146.705 212.055 150.35 216.55 150.35Z" fill="black"/>
<path d="M194.61 131.6C194.121 131.598 193.642 131.741 193.235 132.011C192.827 132.281 192.509 132.667 192.321 133.118C192.132 133.569 192.082 134.066 192.176 134.546C192.27 135.025 192.505 135.466 192.85 135.813C193.195 136.159 193.635 136.396 194.114 136.492C194.594 136.588 195.091 136.539 195.543 136.353C195.995 136.166 196.381 135.85 196.653 135.443C196.925 135.037 197.07 134.559 197.07 134.07C197.067 133.417 196.808 132.792 196.347 132.33C195.887 131.867 195.262 131.605 194.61 131.6Z" fill="black"/>
<path d="M244.41 137C245.777 137.002 247.114 136.598 248.251 135.84C249.389 135.082 250.276 134.004 250.801 132.741C251.325 131.479 251.464 130.089 251.198 128.748C250.933 127.407 250.275 126.175 249.309 125.207C248.343 124.24 247.112 123.581 245.772 123.313C244.431 123.046 243.041 123.182 241.778 123.705C240.515 124.228 239.435 125.113 238.675 126.25C237.915 127.386 237.51 128.723 237.51 130.09C237.508 130.997 237.686 131.895 238.032 132.734C238.378 133.572 238.886 134.334 239.527 134.975C240.168 135.617 240.929 136.126 241.767 136.474C242.605 136.821 243.503 137 244.41 137Z" fill="black"/>
</g>
<g opacity="0.3">
<path d="M267.58 83C267.091 83 266.613 83.1451 266.207 83.417C265.801 83.6888 265.484 84.0752 265.297 84.5271C265.111 84.979 265.062 85.4762 265.159 85.9556C265.255 86.435 265.491 86.8751 265.837 87.2201C266.184 87.5651 266.625 87.7996 267.105 87.8938C267.584 87.9879 268.081 87.9376 268.533 87.7491C268.984 87.5606 269.369 87.2425 269.639 86.835C269.909 86.4275 270.052 85.949 270.05 85.46C270.05 85.1361 269.986 84.8154 269.862 84.5163C269.738 84.2172 269.556 83.9456 269.326 83.717C269.097 83.4884 268.824 83.3074 268.525 83.1844C268.225 83.0614 267.904 82.9987 267.58 83Z" fill="black"/>
<path d="M262.3 62.2C260.876 62.948 259.705 64.1015 258.935 65.5148C258.166 66.928 257.832 68.5376 257.977 70.1402C258.122 71.7428 258.739 73.2664 259.75 74.5187C260.76 75.771 262.119 76.6956 263.655 77.1759C265.191 77.6562 266.834 77.6705 268.378 77.2171C269.922 76.7637 271.297 75.8628 272.329 74.6283C273.361 73.3939 274.004 71.8812 274.177 70.2814C274.35 68.6816 274.045 67.0664 273.3 65.64C272.806 64.69 272.129 63.8471 271.307 63.1596C270.486 62.4721 269.537 61.9537 268.515 61.634C267.493 61.3144 266.418 61.1998 265.351 61.2969C264.285 61.3941 263.248 61.701 262.3 62.2Z" fill="black"/>
<path d="M317 118C317.931 116.233 318.418 114.267 318.42 112.27C318.413 110.321 317.948 108.401 317.064 106.665C316.18 104.928 314.901 103.423 313.33 102.27C319.4 98.9 322.64 92.62 321.66 86.92C322.438 86.3207 323.079 85.5623 323.54 84.6955C324.002 83.8286 324.273 82.8732 324.335 81.8932C324.398 80.9132 324.25 79.9312 323.903 79.0127C323.555 78.0942 323.016 77.2605 322.321 76.5672C321.625 75.8739 320.79 75.337 319.87 74.9924C318.951 74.6479 317.968 74.5036 316.988 74.5692C316.008 74.6347 315.054 74.9087 314.189 75.3727C313.323 75.8368 312.567 76.4802 311.97 77.26C308.535 76.55 304.964 76.9347 301.76 78.36C301.766 76.3646 301.285 74.3977 300.36 72.63C299.579 71.1382 298.512 69.8147 297.22 68.7352C295.928 67.6557 294.436 66.8413 292.829 66.3385C291.222 65.8357 289.532 65.6543 287.855 65.8047C286.178 65.955 284.547 66.4343 283.055 67.215C281.563 67.9957 280.24 69.0626 279.16 70.3548C278.081 71.6469 277.266 73.1391 276.763 74.746C275.748 77.9913 276.063 81.5071 277.64 84.52C278.749 86.6202 280.44 88.3563 282.51 89.52C281.812 90.7377 281.443 92.1163 281.44 93.52C281.441 94.3871 281.583 95.2484 281.86 96.07C280.311 95.7281 278.707 95.72 277.155 96.0463C275.602 96.3725 274.137 97.0257 272.857 97.9622C271.577 98.8988 270.511 100.097 269.73 101.478C268.949 102.858 268.471 104.39 268.328 105.969C268.185 107.549 268.38 109.141 268.9 110.64C269.42 112.138 270.253 113.509 271.344 114.66C272.435 115.812 273.759 116.717 275.227 117.317C276.695 117.917 278.275 118.198 279.86 118.14C278.304 119.785 277.285 121.864 276.937 124.102C276.588 126.339 276.928 128.63 277.91 130.67C275.852 132.074 274.323 134.126 273.566 136.499C272.808 138.872 272.865 141.43 273.729 143.767C274.592 146.103 276.211 148.084 278.33 149.395C280.448 150.706 282.944 151.271 285.42 151C286.22 157.7 292.58 162.92 300.31 162.92C308.59 162.92 315.31 156.92 315.31 149.58C315.302 147.854 314.927 146.15 314.21 144.58C314.69 144.62 315.18 144.64 315.68 144.64C324.26 144.64 331.21 138.64 331.21 131.33C331.19 124.3 324.92 118.59 317 118Z" fill="black"/>
<path d="M241.71 70.19C241.278 70.42 240.924 70.7731 240.693 71.2047C240.462 71.6362 240.364 72.1267 240.412 72.6138C240.461 73.1009 240.652 73.5627 240.964 73.9406C241.275 74.3184 241.691 74.5953 242.16 74.7361C242.629 74.8769 243.129 74.8752 243.597 74.7313C244.065 74.5873 244.479 74.3076 244.788 73.9277C245.096 73.5477 245.285 73.0846 245.33 72.5972C245.375 72.1098 245.274 71.62 245.04 71.19C244.731 70.6161 244.206 70.1884 243.582 70.0009C242.958 69.8134 242.284 69.8814 241.71 70.19Z" fill="black"/>
<path d="M288.35 51.91C289.554 51.2721 290.542 50.292 291.19 49.0932C291.838 47.8944 292.116 46.5307 291.99 45.1739C291.864 43.8171 291.339 42.5281 290.481 41.4693C289.623 40.4106 288.471 39.6295 287.17 39.2246C285.869 38.8196 284.477 38.809 283.17 39.194C281.863 39.579 280.699 40.3424 279.825 41.3879C278.952 42.4334 278.407 43.7143 278.26 45.069C278.113 46.4236 278.371 47.7915 279 49C279.42 49.8073 279.996 50.5235 280.695 51.1072C281.393 51.6909 282.2 52.1306 283.069 52.4011C283.938 52.6716 284.852 52.7675 285.759 52.6832C286.665 52.5989 287.546 52.3361 288.35 51.91Z" fill="black"/>
</g>
<path d="M215.48 174.83C215.48 173.469 215.076 172.139 214.32 171.008C213.564 169.876 212.49 168.994 211.233 168.474C209.975 167.953 208.592 167.817 207.258 168.082C205.923 168.348 204.697 169.003 203.735 169.965C202.773 170.927 202.117 172.153 201.852 173.488C201.586 174.822 201.723 176.206 202.243 177.463C202.764 178.72 203.646 179.794 204.777 180.55C205.909 181.306 207.239 181.71 208.6 181.71C210.424 181.71 212.174 180.985 213.465 179.695C214.755 178.405 215.48 176.655 215.48 174.83Z" fill="white" stroke="#263238" stroke-linecap="round" stroke-linejoin="round"/>
<path d="M213.56 169.9L204.16 179.3" stroke="#263238" stroke-linecap="round" stroke-linejoin="round"/>
<path d="M279.329 247.37C279.329 246.009 278.926 244.679 278.17 243.548C277.414 242.416 276.339 241.534 275.082 241.014C273.825 240.493 272.442 240.357 271.107 240.622C269.773 240.888 268.547 241.543 267.584 242.505C266.622 243.467 265.967 244.693 265.702 246.028C265.436 247.362 265.572 248.746 266.093 250.003C266.614 251.26 267.496 252.335 268.627 253.091C269.758 253.846 271.089 254.25 272.449 254.25C274.274 254.25 276.024 253.525 277.314 252.235C278.604 250.945 279.329 249.195 279.329 247.37Z" fill="#263238" stroke="#263238" stroke-linecap="round" stroke-linejoin="round"/>
<path d="M336.88 174.83C336.88 173.469 336.477 172.139 335.721 171.008C334.965 169.876 333.89 168.994 332.633 168.474C331.376 167.953 329.992 167.817 328.658 168.082C327.323 168.348 326.097 169.003 325.135 169.965C324.173 170.927 323.518 172.153 323.252 173.488C322.987 174.822 323.123 176.206 323.644 177.463C324.165 178.72 325.046 179.794 326.178 180.55C327.309 181.306 328.639 181.71 330 181.71C331.825 181.71 333.575 180.985 334.865 179.695C336.155 178.405 336.88 176.655 336.88 174.83Z" fill="white" stroke="#263238" stroke-linecap="round" stroke-linejoin="round"/>
<path d="M334.96 169.9L325.56 179.3" stroke="#263238" stroke-linecap="round" stroke-linejoin="round"/>
<path d="M243.63 409.82L219.63 418.16C219.237 418.296 218.902 418.563 218.682 418.916C218.462 419.269 218.369 419.687 218.42 420.1C218.477 420.562 218.709 420.985 219.068 421.282C219.426 421.58 219.885 421.729 220.35 421.7L245 420.23L243.63 409.82Z" fill="white" stroke="#263238" stroke-linecap="round" stroke-linejoin="round"/>
<path d="M220.39 421.7L224.34 416.85" stroke="#263238" stroke-linecap="round" stroke-linejoin="round"/>
<path d="M224.88 421.35L230.07 415.03" stroke="#263238" stroke-linecap="round" stroke-linejoin="round"/>
<path d="M229.39 421.23L236.52 412.48" stroke="#263238" stroke-linecap="round" stroke-linejoin="round"/>
<path d="M234.12 420.97L242.57 410.62" stroke="#263238" stroke-linecap="round" stroke-linejoin="round"/>
<path d="M251.83 414.46C251.666 413.109 251.105 411.837 250.218 410.806C249.331 409.774 248.158 409.028 246.847 408.663C245.536 408.297 244.146 408.329 242.854 408.754C241.561 409.178 240.423 409.976 239.584 411.048C238.745 412.119 238.242 413.415 238.14 414.772C238.037 416.129 238.339 417.485 239.008 418.67C239.676 419.856 240.681 420.816 241.896 421.43C243.11 422.044 244.479 422.284 245.83 422.12C246.727 422.011 247.593 421.726 248.38 421.282C249.167 420.839 249.859 420.244 250.416 419.533C250.974 418.821 251.385 418.007 251.628 417.137C251.87 416.266 251.939 415.357 251.83 414.46Z" fill="white" stroke="#263238" stroke-linecap="round" stroke-linejoin="round"/>
<path d="M249.33 409.79L241.13 420.25" stroke="#263238" stroke-linecap="round" stroke-linejoin="round"/>
<path d="M368.47 408.46L366.08 411.46C365.8 411.28 365.52 411.1 365.2 410.93C364.097 410.315 362.954 409.774 361.78 409.31L367.78 407.53L370.1 406.99V406.84H370.15H370.1V400.25L358.66 402.44L360.66 404.13L359.76 403.87L351.38 406.36C347.86 405.64 349.11 402.83 345.07 402.44L341.69 401.23L327.3 400.59L324.89 400.65C319.89 397.77 315.29 397.43 313.06 404.65L307.5 401.54L300.72 402.54L304.55 399.64L294.63 396.7V403.47L287 404.72H274.16V411.49L284.93 413.07C284.556 413.423 284.221 413.816 283.93 414.24L273.75 414.73L271.29 410.53V417.3L273.75 421.49L283.16 421.04V426.71L293.56 429.71L302 427.2C305.765 427.951 309.567 428.505 313.39 428.86L311.69 432.33L326.08 432.97L327.8 429.5C331.99 429.5 336.21 429.29 340.33 428.9L345.89 432.01L358.75 430.06L357.75 425.76C359.29 425.3 360.75 424.82 361.98 424.3L372.7 425.88L379.14 422.08V416.4L381.98 416.27V409.5L368.47 408.46ZM297.93 405.36L300.18 406.62C298.77 406.93 297.45 407.27 296.18 407.62L297.93 405.36ZM343.54 423.36V419.93L339.67 420.04V419.54L335.58 420.17C328.02 420.39 317.74 420.7 317.38 420.7L316.53 422.43C310.46 422.75 305.17 422.37 301.91 420.54C294.72 416.54 299.97 411.6 313.65 409.54C327.33 407.48 344.23 409.06 351.42 413.07C357.88 416.65 354.27 421 343.54 423.34V423.36ZM376 417.21L372 416.75L377.23 416.5L376 417.21Z" fill="#263238" stroke="#263238" stroke-linecap="round" stroke-linejoin="round"/>
<path d="M341.66 394.47L338.37 399.51L341.66 398.7V394.47Z" fill="#263238" stroke="#263238" stroke-linecap="round" stroke-linejoin="round"/>
<path d="M339.67 417.28C326 419.35 309.09 417.77 301.91 413.76C294.73 409.75 299.97 404.81 313.65 402.76C327.33 400.71 344.23 402.27 351.42 406.28C358.61 410.29 353.35 415.22 339.67 417.28ZM307.47 394.78L294.6 396.78L300.18 399.9C297.16 400.537 294.197 401.42 291.32 402.54L280.6 400.97L274.16 404.76L284.93 406.34C284.392 406.794 283.954 407.355 283.643 407.986C283.331 408.618 283.153 409.307 283.12 410.01L271.32 410.57L273.78 414.77L285.61 414.2C286.394 414.839 287.234 415.404 288.12 415.89C289.224 416.501 290.366 417.039 291.54 417.5L283.19 419.98L293.59 422.98L301.97 420.49C305.743 421.237 309.551 421.791 313.38 422.15L311.66 425.61L326.05 426.25L327.77 422.79C331.96 422.79 336.18 422.57 340.3 422.18L345.86 425.29L358.72 423.35L353.14 420.23C356.159 419.588 359.122 418.705 362 417.59L372.72 419.16L379.16 415.37L368.39 413.79C368.928 413.335 369.366 412.775 369.677 412.143C369.988 411.512 370.167 410.823 370.2 410.12L382 409.55L379.54 405.36L367.71 405.92C366.927 405.285 366.086 404.722 365.2 404.24C364.095 403.629 362.953 403.088 361.78 402.62L370.14 400.14L359.73 397.14L351.35 399.63C347.578 398.878 343.77 398.324 339.94 397.97L341.66 394.51L327.27 393.86L325.55 397.33C321.36 397.33 317.14 397.55 313.03 397.93L307.47 394.82" fill="#FF8400"/>
<path d="M307.47 394.78L294.6 396.78L300.18 399.9C297.16 400.537 294.197 401.42 291.32 402.54L280.6 400.97L274.16 404.76L284.93 406.34C284.392 406.794 283.954 407.355 283.643 407.986C283.331 408.618 283.153 409.307 283.12 410.01L271.32 410.57L273.78 414.77L285.61 414.2C286.394 414.839 287.234 415.404 288.12 415.89C289.224 416.501 290.366 417.039 291.54 417.5L283.19 419.98L293.59 422.98L301.97 420.49C305.743 421.237 309.551 421.791 313.38 422.15L311.66 425.61L326.05 426.25L327.77 422.79C331.96 422.79 336.18 422.57 340.3 422.18L345.86 425.29L358.72 423.35L353.14 420.23C356.159 419.588 359.122 418.705 362 417.59L372.72 419.16L379.16 415.37L368.39 413.79C368.928 413.335 369.366 412.775 369.677 412.143C369.988 411.512 370.167 410.823 370.2 410.12L382 409.55L379.54 405.36L367.71 405.92C366.927 405.285 366.086 404.722 365.2 404.24C364.095 403.629 362.953 403.088 361.78 402.62L370.14 400.14L359.73 397.14L351.35 399.63C347.578 398.878 343.77 398.324 339.94 397.97L341.66 394.51L327.27 393.86L325.55 397.33C321.36 397.33 317.14 397.55 313.03 397.93L307.47 394.82M339.67 417.28C326 419.35 309.09 417.77 301.91 413.76C294.73 409.75 299.97 404.81 313.65 402.76C327.33 400.71 344.23 402.27 351.42 406.28C358.61 410.29 353.35 415.22 339.67 417.28Z" stroke="#263238" stroke-linecap="round" stroke-linejoin="round"/>
<path d="M246.75 244.13C246.747 242.379 246.617 240.631 246.36 238.9L255.58 235.9L256.84 232.9L254.84 233.49L251.99 224.71L242.74 227.71C241.13 224.66 239.086 221.861 236.67 219.4L242.37 211.55L243.63 208.55L241.63 211.01L232.86 204.64L227.14 212.51C224.047 210.979 220.745 209.914 217.34 209.35V199.65H207.5L206.74 196.65L205.49 199.65V209.38C202.087 209.958 198.788 211.036 195.7 212.58L190 204.7L183.59 209.36L181.72 208.61L181.52 209.1L180.46 211.63L186.19 219.5C183.795 221.973 181.773 224.782 180.19 227.84L174 225.84L172.22 221.84L170.96 224.84L167.32 236.04L176.57 239.04C176.325 240.719 176.202 242.413 176.2 244.11C176.203 245.86 176.334 247.608 176.59 249.34L171.59 250.97L168.65 249.32L167.4 252.32L171 263.56L180.25 260.56C181.861 263.614 183.909 266.417 186.33 268.88L182.78 273.75H181.88L180.62 276.75L190.15 283.68L195.87 275.81C198.965 277.336 202.267 278.4 205.67 278.97V288.67H217.45L218.71 285.67H217.45V278.95C220.854 278.373 224.153 277.294 227.24 275.75L232.94 283.59L242.48 276.67L243.73 273.67L241.18 274.9L236.76 268.81C239.156 266.337 241.177 263.527 242.76 260.47L251.99 263.47L255.63 252.27L246.38 249.27C246.628 247.568 246.752 245.85 246.75 244.13ZM211.46 266.8C206.976 266.802 202.592 265.474 198.863 262.984C195.133 260.494 192.226 256.954 190.509 252.812C188.791 248.67 188.341 244.112 189.215 239.713C190.088 235.315 192.247 231.275 195.417 228.103C198.587 224.932 202.626 222.772 207.024 221.896C211.422 221.021 215.98 221.469 220.123 223.185C224.266 224.9 227.808 227.806 230.299 231.534C232.79 235.262 234.12 239.646 234.12 244.13C234.12 250.141 231.733 255.905 227.484 260.156C223.235 264.408 217.471 266.797 211.46 266.8Z" fill="#263238" stroke="#263238" stroke-linecap="round" stroke-linejoin="round"/>
<path d="M253.25 260.4L256.89 249.19L247.64 246.19C247.877 244.507 247.997 242.809 248 241.11C248 239.363 247.873 237.618 247.62 235.89L256.84 232.89L253.2 221.68L243.95 224.68C242.339 221.625 240.291 218.822 237.87 216.36L243.58 208.51L234 201.6L228.29 209.46C225.193 207.933 221.887 206.871 218.48 206.31V196.61H206.74V206.34C203.337 206.918 200.038 207.996 196.95 209.54L191.25 201.69L181.72 208.61L187.44 216.49C185.048 218.965 183.027 221.775 181.44 224.83L172.22 221.83L168.54 233L177.79 236C177.545 237.679 177.422 239.373 177.42 241.07C177.418 242.821 177.548 244.569 177.81 246.3L168.58 249.3L172.23 260.51L181.48 257.51C183.081 260.565 185.127 263.365 187.55 265.82L181.85 273.68L191.38 280.6L197.1 272.73C200.191 274.266 203.494 275.331 206.9 275.89V285.59H218.68V275.86C222.083 275.282 225.382 274.203 228.47 272.66L234.17 280.51L243.7 273.58L238 265.74C240.396 263.267 242.417 260.457 244 257.4L253.25 260.4ZM190.05 241.11C190.05 236.626 191.38 232.242 193.871 228.514C196.363 224.786 199.904 221.88 204.047 220.165C208.19 218.449 212.749 218.001 217.146 218.876C221.544 219.752 225.584 221.912 228.754 225.083C231.924 228.255 234.082 232.295 234.956 236.693C235.829 241.092 235.379 245.65 233.662 249.792C231.944 253.934 229.037 257.474 225.308 259.964C221.578 262.454 217.194 263.782 212.71 263.78C209.733 263.78 206.786 263.193 204.036 262.054C201.286 260.915 198.788 259.245 196.683 257.139C194.579 255.034 192.91 252.535 191.772 249.785C190.634 247.034 190.049 244.086 190.05 241.11Z" fill="#BDBDBD" stroke="#263238" stroke-linecap="round" stroke-linejoin="round"/>
<path d="M308.17 181.45C308.172 179.699 308.042 177.951 307.78 176.22L317.01 173.22L318.26 170.22L316.26 170.81L313.37 162L304.12 165C302.507 161.95 300.459 159.151 298.04 156.69L303.75 148.84L305 145.84L303 148.3L294.23 141.93L288.52 149.8C285.423 148.27 282.118 147.205 278.71 146.64V136.94H268.94L268.19 133.94L266.93 136.94V146.67C263.527 147.248 260.228 148.326 257.14 149.87L251.44 142.02L245 146.68L243.14 145.94L242.93 146.42L241.89 149L247.61 156.87C245.212 159.344 243.191 162.158 241.61 165.22L235.42 163.22L233.64 159.22L232.39 162.22L228.75 173.42L238 176.42C237.756 178.099 237.632 179.793 237.63 181.49C237.628 183.241 237.759 184.989 238.02 186.72L233.02 188.35L230 186.66L228.74 189.66L232.38 200.86L241.64 197.86C243.247 200.912 245.292 203.712 247.71 206.17L244.17 211.05H243.26L242 214L251.53 220.93L257.24 213.06C260.337 214.59 263.643 215.655 267.05 216.22V226H278.83L280.09 223H278.83V216.28C282.233 215.702 285.533 214.624 288.62 213.08L294.32 220.93L303.85 214L305.11 211L302.55 212.22L298.13 206.14C300.528 203.665 302.55 200.852 304.13 197.79L313.36 200.79L317 189.59L307.74 186.59C308.008 184.889 308.152 183.171 308.17 181.45ZM272.88 204.12C268.397 204.12 264.014 202.79 260.285 200.299C256.557 197.808 253.652 194.268 251.936 190.125C250.22 185.983 249.771 181.425 250.646 177.027C251.521 172.63 253.68 168.59 256.85 165.42C260.021 162.249 264.06 160.09 268.458 159.216C272.855 158.341 277.413 158.79 281.556 160.506C285.698 162.221 289.239 165.127 291.73 168.855C294.221 172.583 295.55 176.966 295.55 181.45C295.55 187.462 293.162 193.229 288.91 197.48C284.659 201.732 278.893 204.12 272.88 204.12Z" fill="#263238" stroke="#263238" stroke-linecap="round" stroke-linejoin="round"/>
<path d="M314.67 197.72L318.31 186.51L309.06 183.51C309.305 181.831 309.428 180.137 309.43 178.44C309.427 176.689 309.297 174.941 309.04 173.21L318.26 170.21L314.62 159L305.37 162C303.769 158.945 301.723 156.145 299.3 153.69L305 145.83L295.47 138.91L289.75 146.78C286.659 145.245 283.356 144.18 279.95 143.62V133.92H268.17V143.65C264.767 144.228 261.468 145.306 258.38 146.85L252.68 139L243.15 145.93L248.87 153.8C246.474 156.273 244.453 159.082 242.87 162.14L233.64 159.14L230 170.36L239.25 173.36C239.005 175.042 238.881 176.74 238.88 178.44C238.883 180.187 239.013 181.932 239.27 183.66L230.05 186.66L233.69 197.87L242.94 194.87C244.551 197.925 246.599 200.727 249.02 203.19L243.27 211L252.8 218L258.52 210.14C261.614 211.665 264.916 212.727 268.32 213.29V222.99H280.11V213.27C283.511 212.689 286.807 211.608 289.89 210.06L295.6 217.91L305.13 210.99L299.41 203.11C301.803 200.635 303.824 197.826 305.41 194.77L314.67 197.72ZM251.47 178.44C251.468 173.956 252.796 169.572 255.286 165.842C257.776 162.113 261.315 159.206 265.458 157.488C269.6 155.771 274.158 155.321 278.557 156.194C282.955 157.068 286.995 159.226 290.167 162.396C293.338 165.566 295.498 169.606 296.374 174.004C297.249 178.401 296.801 182.96 295.085 187.103C293.37 191.246 290.464 194.787 286.736 197.279C283.008 199.77 278.624 201.1 274.14 201.1C268.129 201.1 262.365 198.713 258.113 194.464C253.862 190.214 251.473 184.451 251.47 178.44Z" fill="#BDBDBD" stroke="#263238" stroke-linecap="round" stroke-linejoin="round"/>
<path opacity="0.2" d="M296.23 256.29H296.32L297.83 254.92L296.23 256.29Z" fill="black"/>
<path opacity="0.2" d="M294.52 261L294.04 261.25C294.06 261.38 294.15 261.39 294.52 261Z" fill="black"/>
<path opacity="0.2" d="M295.351 259.27C295.491 259.09 294.351 260.27 293.971 260.75C294.351 260.57 295.431 259.56 295.351 259.27Z" fill="black"/>
<path opacity="0.2" d="M292.751 263.56L296.981 262.19C297.301 261.87 297.471 261.59 297.241 261.43C296.521 262.43 296.611 261.79 296.091 262.16V262.25C295.961 262.34 295.571 262.61 295.721 262.34C296.748 261.746 297.731 261.078 298.661 260.34C298.241 260.56 298.781 259.73 298.801 259.58C299.601 258.93 299.011 259.77 299.101 259.96C299.501 259.59 300.381 259.23 300.451 258.67C300.791 257.93 299.571 259.12 299.221 259.12L301.701 257.29H301.581C301.906 257.157 302.184 256.931 302.381 256.64C302.431 256.27 301.891 256.73 301.611 257.1C302.501 255.72 304.131 255.65 304.611 254.19L304.231 254.43C304.371 254.24 304.501 254.16 304.621 254.16C304.741 254.16 304.621 254.16 304.621 254.16L305.391 253.68C305.391 253.58 305.391 253.39 305.301 253.48L306.071 253.03C307.381 252.03 306.071 252.37 306.351 251.91L306.291 251.97C306.591 251.56 306.711 251.14 306.421 251.35L307.851 250.35C307.691 250.35 307.561 250.35 307.531 250.25L307.851 250.35C308.621 250.17 310.471 248.46 310.981 249.01C311.031 248.946 311.077 248.879 311.121 248.81C311.121 248.71 311.071 248.6 311.051 248.49C310.931 248.616 310.797 248.727 310.651 248.82L311.051 248.49C310.825 247.322 310.691 246.139 310.651 244.95C310.321 245.22 310.081 245.46 310.071 245.64L310.211 245.56L310.161 245.84C310.128 245.819 310.102 245.789 310.086 245.753C310.07 245.718 310.064 245.678 310.071 245.64C309.121 246.21 308.431 247.15 307.681 247.64L307.881 247.92C307.447 248.17 307.049 248.48 306.701 248.84C306.701 248.84 306.811 248.84 306.911 248.84L307.461 248.41C307.321 248.602 307.131 248.751 306.911 248.84C305.681 249.825 304.509 250.88 303.401 252C303.621 252.1 303.721 252.2 304.401 251.65C303.651 252.85 301.511 253.93 300.121 255.5H300.341L299.341 256.13C299.591 256.04 299.561 256.23 299.671 256.33C298.291 257.8 296.521 259.55 295.311 259.81C295.821 259.53 294.951 260.74 295.971 260.1C294.764 260.936 293.636 261.88 292.601 262.92L292.751 263.56ZM300.581 257.65L301.511 256.92L300.561 257.84L300.581 257.65ZM298.171 259.86L297.351 260.68L296.841 260.95L298.171 259.86Z" fill="black"/>
<path opacity="0.2" d="M294.001 261.29C294.001 261.1 294.261 260.58 293.601 261.49L294.001 261.29Z" fill="black"/>
<path opacity="0.2" d="M294.09 258.22L295.75 257.22L295.13 257.49L296.13 256.76C295.83 256.66 294.69 257.29 294.09 258.22Z" fill="black"/>
<path opacity="0.2" d="M295 258.14C294.813 258.237 294.641 258.362 294.49 258.51C294.648 258.37 294.818 258.246 295 258.14Z" fill="black"/>
<path opacity="0.2" d="M295 258.14C295.21 258.08 294.94 258.53 295.6 258.07C295.59 257.88 295.32 258 295 258.14Z" fill="black"/>
<path opacity="0.2" d="M328.601 283.44L329.111 282.66C328.371 282.62 328.711 283.05 328.601 283.44Z" fill="black"/>
<path opacity="0.2" d="M296.691 256.31L296.321 256.29L296.221 256.38L296.691 256.31Z" fill="black"/>
<path opacity="0.2" d="M337.19 218.46C337.6 218.29 338.24 218.27 338.46 217.46C337.69 217.52 337.85 218.09 337.19 218.46Z" fill="black"/>
<path opacity="0.2" d="M328.44 283.7C328.52 283.633 328.576 283.541 328.6 283.44L328.44 283.7Z" fill="black"/>
<path opacity="0.2" d="M342.531 210.1H342.371C342.221 210.37 342.151 210.59 342.231 210.62C342.287 210.425 342.39 210.246 342.531 210.1Z" fill="black"/>
<path opacity="0.2" d="M338.29 221H338.05C339.48 220 340.59 217.95 341.83 216.58C341.83 216.76 340.75 217.67 341.19 217.87L342.93 216.31C342.93 216.13 343.64 215.39 343.02 215.66C342.801 215.842 342.612 216.058 342.46 216.3L342.51 215.93C344.23 214.56 342.9 216.5 343.22 216.78C343.93 215.86 344.52 215.87 345.07 215.32C345.02 214.76 343.67 216.05 344.07 215.02C344.862 214.019 345.894 213.235 347.07 212.74C347.107 212.421 347.221 212.116 347.4 211.85C346.95 211.65 346.49 211.46 346.03 211.28C343.49 213.62 340.56 215.22 338.59 218.33H338.7L336.51 219.79C336.22 220.16 336.41 220.54 335.96 221.18C335.96 220.88 335.62 221.18 335.23 221.58C335.97 221.65 336.69 221.75 337.4 221.88C337.631 221.526 337.934 221.226 338.29 221Z" fill="black"/>
<path opacity="0.2" d="M299.68 254.3C299.96 253.93 299.62 253.83 300.39 253.37C300.47 253.66 301.14 253.86 301.88 252.84C301.067 253.017 300.298 253.357 299.62 253.84L299.68 254.3Z" fill="black"/>
<path opacity="0.2" d="M301.811 253.45L302.811 252.2C301.801 252.41 302.101 252.89 301.811 253.45Z" fill="black"/>
<path opacity="0.2" d="M301.81 253.45L301.5 253.86C301.629 253.745 301.734 253.605 301.81 253.45Z" fill="black"/>
<path opacity="0.2" d="M310.82 240.73H310.83V240.72L310.82 240.73Z" fill="black"/>
<path opacity="0.2" d="M361.231 222.67L361.021 222.41C360.871 222.54 360.721 222.68 360.561 222.84C360.581 223.08 360.931 222.88 361.231 222.67Z" fill="black"/>
<path opacity="0.2" d="M350.41 259.13C350.78 258.55 351.24 258.68 351.56 258.36C351.47 258.1 351.19 258.22 350.97 258.24C350.76 258.5 350.56 258.75 350.34 259C350.349 259.049 350.373 259.095 350.41 259.13Z" fill="black"/>
<path opacity="0.2" d="M351.521 258.07C351.521 257.86 351.891 257.5 352.191 257.07C351.731 257 351.321 258 351.521 258.07Z" fill="black"/>
<path opacity="0.2" d="M345.671 265.93C345.341 266.11 344.521 266.01 344.261 266.76L344.761 266.5L344.691 266.61L344.971 266.69C344.381 266.32 345.431 266.14 345.671 265.93Z" fill="black"/>
<path opacity="0.2" d="M354.131 231.16L353.681 231.81L354.081 231.44L354.131 231.16Z" fill="black"/>
<path opacity="0.2" d="M311.651 251C311.3 251.361 310.922 251.696 310.521 252L310.711 252.29C310.278 252.539 309.881 252.845 309.531 253.2C309.564 253.215 309.6 253.222 309.636 253.222C309.672 253.222 309.708 253.215 309.741 253.2L310.301 252.76C310.157 252.955 309.964 253.107 309.741 253.2C308.531 254.179 307.376 255.224 306.281 256.33C306.501 256.43 306.611 256.53 307.281 255.98C306.531 257.18 304.381 258.26 302.991 259.83H303.221L302.221 260.46C302.471 260.38 302.441 260.57 302.541 260.66L302.271 260.94C303.841 263.832 305.807 266.49 308.111 268.84L302.411 276.69L311.941 283.62L317.651 275.75C320.749 277.276 324.054 278.34 327.461 278.91V281.2C327.561 281.126 327.642 281.03 327.697 280.918C327.753 280.807 327.781 280.684 327.781 280.56L327.531 280.67C327.611 280.55 327.691 280.51 327.781 280.53C327.871 280.55 327.781 280.53 327.781 280.53L328.291 280.31C328.291 280.23 328.291 280.09 328.181 280.13L328.691 279.94C329.521 279.42 328.531 279.41 328.691 279.11C328.841 278.85 328.851 278.55 328.691 278.65L329.611 278.16C329.556 278.161 329.503 278.147 329.456 278.121C329.408 278.095 329.369 278.056 329.341 278.01L329.611 278.16C330.181 278.16 331.291 277.21 331.811 277.75C331.951 277.52 332.011 277.28 331.811 277.28C331.729 277.375 331.626 277.45 331.511 277.5L331.811 277.28C332.371 276.79 331.281 276.99 332.201 276.23C332.101 276.13 332.031 276.23 331.861 276.34C332.071 276.11 332.191 276.05 332.291 276.07C332.217 275.997 332.168 275.903 332.151 275.8C332.351 276 332.661 275.6 332.801 275.37H332.171C332.342 275.362 332.508 275.31 332.654 275.219C332.799 275.128 332.919 275.001 333.001 274.85H332.551C333.201 274.35 333.051 275.27 333.551 274.39L333.131 275.23C333.931 274.57 334.131 275.23 334.631 275.1C335.741 274.67 336.071 273.1 337.331 273.2C337.201 272.89 337.031 272.91 337.061 272.51C336.865 272.688 336.634 272.822 336.382 272.903C336.13 272.985 335.864 273.011 335.601 272.98C334.341 273.59 336.191 274.04 334.651 274.56C334.431 274.23 334.741 273.9 335.171 273.75C334.951 273.48 334.441 273.68 334.101 273.75C334.821 273.29 335.371 272.14 335.771 271.75H335.721H335.811C336.234 271.673 336.618 271.454 336.901 271.13C336.901 271.13 336.901 271.04 336.901 270.93C336.92 270.96 336.931 270.994 336.931 271.03C336.931 271.066 336.92 271.1 336.901 271.13C337.051 271.35 338.111 270.56 338.201 271.22C338.931 270.68 338.071 270.3 339.121 270.12C338.571 270.03 339.311 269.48 338.771 269.47C338.831 269.96 337.701 270.19 337.181 270.32L337.931 269.23C337.791 269.54 338.311 269.41 338.481 269.32L338.341 268.94C339.121 269.43 339.501 266.87 340.701 267.14C340.371 267.39 340.341 267.86 339.871 267.66C339.521 268.38 340.461 268.03 340.431 268.5C341.521 267.92 342.371 266.24 343.741 265.81C343.381 265.81 342.991 266.22 342.691 265.99C343.211 265.18 344.611 264.99 345.611 264.43L345.141 264.23C346.081 263.87 345.271 263.85 346.081 263.23C346.081 263.3 346.081 263.52 346.281 263.35C346.831 262.76 346.061 263.02 346.351 262.56C346.941 262.46 346.961 262.3 346.961 262.08C344.077 264.278 340.709 265.753 337.137 266.379C333.566 267.006 329.897 266.766 326.437 265.681C322.978 264.595 319.83 262.695 317.257 260.141C314.684 257.586 312.761 254.452 311.651 251ZM344.761 263.8C345.161 264.04 344.261 264.68 344.121 264.98C343.871 264.46 344.861 264.54 344.761 263.83V263.8Z" fill="black"/>
<path opacity="0.2" d="M361.24 224C361.301 223.903 361.348 223.799 361.38 223.69C361.26 223.84 361.23 223.93 361.24 224Z" fill="black"/>
<path opacity="0.2" d="M361.46 224.14C361.591 224.136 361.716 224.082 361.81 223.99C361.681 224.006 361.56 224.058 361.46 224.14Z" fill="black"/>
<path opacity="0.2" d="M361.46 224.14C361.34 224.14 361.26 224.14 361.24 224.01C360.51 225.079 359.657 226.059 358.7 226.93C358.52 227.4 359.7 226.67 360.05 226.49C358.82 226.09 361.13 225.49 361.5 224.55C361.25 224.64 360.83 225.1 360.6 225.09C360.815 224.715 361.108 224.391 361.46 224.14Z" fill="black"/>
<path opacity="0.2" d="M328.521 283C328.155 283.003 327.79 283.04 327.431 283.11C327.485 283.214 327.57 283.3 327.674 283.356C327.777 283.412 327.896 283.436 328.013 283.424C328.13 283.412 328.241 283.365 328.332 283.29C328.422 283.214 328.488 283.113 328.521 283Z" fill="black"/>
<path opacity="0.2" d="M359.26 224.6L360.88 223.04C360.47 222.65 360.21 223.68 359.73 223.77C359.8 223.24 360.43 222.77 360.96 222.33C360.158 221.307 359.304 220.325 358.4 219.39L364.1 211.54L357.24 206.54C356.65 207.1 355.97 207.87 355.24 208.45L355.45 208.64L354.67 209.19L355.03 209.1C354.36 209.74 353.24 210.19 352.65 211.1C353.07 210.55 353.51 210.75 353.6 210.94L351.26 212.58C351.35 212.77 350.52 213.69 351.26 213.24L350.26 213.78L350.48 213.88C347.66 217.29 343.81 218.81 341.41 222.61H341.52L341.12 222.88C345.776 224.627 349.732 227.851 352.38 232.06C353.475 231.351 354.482 230.515 355.38 229.57C355.15 229.57 354.74 229.93 354.63 229.93C355.82 228.93 357.92 228.21 358.2 227C357.52 227.34 356.72 227.76 355.99 228.16C355.887 228.274 355.75 228.351 355.6 228.38C355.14 228.64 354.71 228.88 354.39 229.08C354.98 228.27 355.27 228.44 355.6 228.38L355.99 228.16C356.199 227.946 356.371 227.7 356.5 227.43L355.89 227.61C357.14 226.22 357.37 227.08 358.37 226.61L358.88 225.5C359.621 224.539 360.501 223.693 361.49 222.99L361.26 222.71C360.66 223.36 359.9 224.37 359.26 224.6Z" fill="black"/>
<path opacity="0.2" d="M339.57 271.18L339.37 271.35C339.451 271.312 339.52 271.253 339.57 271.18Z" fill="black"/>
<path opacity="0.2" d="M339 271.42C339.17 271.64 339.19 271.54 339.39 271.35C339.09 271.49 338.81 271.16 338.59 271.72C338.74 271.7 338.8 271.44 339 271.42Z" fill="black"/>
<path opacity="0.2" d="M340.48 269.93C340.3 269.27 339.48 270.21 339.23 270.67C339.49 270.61 340 269.66 340.48 269.93Z" fill="black"/>
<path opacity="0.2" d="M339.34 269.48L339.39 269.83L339.7 269.44L339.34 269.48Z" fill="black"/>
<path opacity="0.2" d="M342.75 266.2L343.26 265.93L343.25 265.86L342.75 266.13V266.2Z" fill="black"/>
<path opacity="0.2" d="M342.37 270.06C341.88 269.72 342.17 270.55 341.57 270.72C341.77 270.92 342.25 270.51 342.52 270.51C342.67 270.28 342.24 270.36 342.05 270.31C342.133 270.2 342.243 270.114 342.37 270.06Z" fill="black"/>
<path opacity="0.2" d="M341.05 272L340.87 272.16C340.949 272.132 341.013 272.075 341.05 272Z" fill="black"/>
<path opacity="0.2" d="M341.051 272L341.351 271.75C341.131 271.59 341.151 271.82 341.051 272Z" fill="black"/>
<path opacity="0.2" d="M337.86 216.69L338.27 216.23C337.83 216.88 339.27 215.87 338.55 216.8C338.26 217.17 339.3 216.44 339.6 215.97C339.38 215.87 338.68 216.7 338.74 216.24L339.03 215.87C338.6 216.43 338.34 215.76 337.86 216.69Z" fill="black"/>
<path opacity="0.2" d="M360.58 251.54C360.33 251.68 360.24 251.65 360.12 252.1C360.37 252 360.6 251.68 360.58 251.54Z" fill="black"/>
<path opacity="0.2" d="M353.74 256C353.66 256 353.11 256.64 352.91 256.45L353.06 256.9C353.28 256.55 353.81 256.5 353.74 256.68C353.78 256.25 354.12 256.15 353.74 256Z" fill="black"/>
<path opacity="0.2" d="M357.33 252C357.11 252.34 356.33 252.39 356.55 252.87L357.29 252.4C357.27 252.17 357.61 252.07 357.33 252Z" fill="black"/>
<path opacity="0.2" d="M368.531 244.13C368.533 242.379 368.402 240.631 368.141 238.9L377.371 235.9L373.731 224.7L364.481 227.7C363.951 226.7 363.371 225.76 362.761 224.82C362.47 225.18 362.105 225.473 361.691 225.68C361.691 225.86 362.091 225.4 361.921 225.78C359.921 227.71 356.601 230.26 354.481 232.85C354.181 232.7 353.721 232.93 353.171 233.33C355.163 236.988 356.107 241.124 355.901 245.284C355.694 249.445 354.345 253.467 352.001 256.91C352.198 256.813 352.412 256.755 352.631 256.74C352.391 255.57 354.341 254.74 353.811 254.2C353.811 254.27 354.191 254.3 354.331 254H354.001C354.411 253.09 355.141 253.84 355.431 253.31C355.321 253.22 355.161 253.31 354.971 253.25C355.731 252.25 357.021 252.53 357.581 251.32C357.481 251.32 357.391 251.27 357.321 251.38C357.251 251.49 357.381 251.2 357.811 251.04L357.701 251.56C358.801 251.73 358.701 250.05 359.571 249.49C359.381 249.49 358.831 249.97 358.951 249.49C359.421 249.01 360.051 249.74 360.291 248.84C359.961 249.02 359.721 248.63 359.411 248.84C359.338 248.936 359.254 249.024 359.161 249.1C359.223 248.995 359.308 248.906 359.411 248.84C359.741 248.43 359.811 247.98 360.191 248.09C360.228 248.041 360.248 247.981 360.248 247.92C360.248 247.859 360.228 247.799 360.191 247.75C360.132 247.765 360.07 247.765 360.011 247.75C360.011 247.67 360.121 247.69 360.191 247.75C360.621 247.75 360.861 247.19 361.051 246.89L360.871 246.83C361.971 247.01 361.661 246.1 362.311 245.53L362.031 245.45C362.361 245.27 362.971 245.1 363.141 244.4H362.691C363.201 244.2 363.521 243.2 364.151 243.24C364.221 243.05 363.421 243.17 363.971 242.57C364.241 242.57 364.831 242.27 364.781 241.91C364.681 241.81 364.491 241.76 364.441 242.02C364.361 242.13 364.441 242.09 364.541 242.12H364.181C364.461 241.52 364.701 241.92 365.061 241.35C365.061 241.13 364.701 241.35 364.521 241.26L366.661 239.88C366.861 240 366.721 240.31 367.081 240.34L366.541 241.01C366.541 241.56 367.171 241.01 367.541 240.8L367.151 241.24C367.157 241.247 367.165 241.252 367.174 241.255C367.182 241.259 367.191 241.261 367.201 241.261C367.21 241.261 367.219 241.259 367.228 241.255C367.236 241.252 367.244 241.247 367.251 241.24L366.931 241.54C368.121 241.05 366.571 242.88 367.741 242.25C367.461 242.44 367.129 242.538 366.791 242.53C366.301 242.87 366.581 242.94 366.521 243.2L367.371 242.83C366.321 243.69 367.751 243.01 367.241 243.89C366.241 244.5 366.591 245.76 366.241 246.2C365.361 246.97 366.241 245.58 365.591 245.94C365.101 246.35 365.591 246.34 365.321 246.69L364.771 246.53C364.201 246.99 365.081 246.89 364.661 247.05C364.471 247.68 364.931 247.05 365.311 247.23C365.131 247.23 364.551 247.56 364.501 247.89C364.601 247.99 365.161 247.46 364.851 247.89C363.391 248.98 363.481 249.7 362.291 250.79L362.571 250.87C362.401 250.96 362.221 250.98 362.161 251.17H362.341C361.537 251.733 360.784 252.365 360.091 253.06L360.691 252.89L359.761 253.32L360.161 253.56C359.611 253.48 359.021 254.47 358.291 255.02L358.501 255.21L357.991 255.48H358.261C357.871 255.85 357.081 255.96 356.801 256.57C357.021 256.22 357.411 256.47 357.521 256.64L356.021 257.45C356.131 257.61 355.671 258.17 356.181 257.97L355.491 258.18L355.691 258.31C354.181 260.41 351.461 260.8 350.361 263.31H350.451L349.021 263.99C348.871 264.23 349.101 264.56 348.881 264.99C348.731 264.54 348.241 265.56 347.791 265.5C347.661 265.88 347.991 265.7 348.181 265.75C347.461 267.06 346.181 267.37 345.261 268.69C345.628 267.854 346.095 267.065 346.651 266.34C345.581 267.07 345.731 267.52 344.651 268.39L345.241 268.07C345.181 269.02 343.521 269.3 343.871 269.95C343.231 270.45 342.241 270.44 341.631 271.23L342.361 271.37L341.731 272.01L341.421 271.72C341.201 271.91 341.151 272.07 341.201 272.17C341.356 272.146 341.515 272.146 341.671 272.17C341.451 272.29 341.261 272.26 341.201 272.17C340.431 272.26 340.011 273.06 339.141 273.4L339.231 273.61C339.331 273.61 339.411 273.61 339.231 273.78V273.61C339.151 273.618 339.07 273.618 338.991 273.61C339.141 273.99 338.561 274.37 338.781 274.61C339.031 274.47 339.611 274.16 339.411 274.04C340.201 273.85 338.981 274.8 338.671 275.12C338.871 274.64 338.391 275.05 338.141 275.18C338.141 275.25 338.231 275.18 338.321 275.24C337.891 276 336.921 275.45 337.041 276.38L336.661 276.2L336.391 276.88C335.791 276.36 335.671 277.49 335.071 277.05C334.521 277.58 335.461 277.3 335.211 277.43C334.821 278.05 333.431 278.43 333.521 278.86H333.611V279.08C333.551 279.036 333.509 278.972 333.491 278.9C332.861 279.15 332.491 279.74 332.031 280L332.241 280.27C331.96 280.366 331.707 280.527 331.501 280.74C331.555 280.762 331.616 280.762 331.671 280.74L332.011 280.51C331.976 280.572 331.927 280.625 331.868 280.665C331.809 280.705 331.741 280.731 331.671 280.74C330.926 281.259 330.23 281.845 329.591 282.49C329.791 282.62 329.891 282.72 330.301 282.42C329.961 283.22 328.491 283.62 327.721 284.57H327.901L327.471 284.75V285.01C327.485 285.038 327.505 285.062 327.531 285.08L327.471 285.14V288.44H339.251V278.71C342.654 278.132 345.953 277.054 349.041 275.51L354.741 283.35L364.271 276.43L358.551 268.55C360.949 266.079 362.97 263.269 364.551 260.21L373.771 263.21L377.421 252.01L368.161 249.01C368.396 247.394 368.52 245.763 368.531 244.13ZM357.861 250.56C358.301 249.87 358.011 250.4 358.661 249.9L357.861 250.56Z" fill="black"/>
<path opacity="0.2" d="M298 244.13C297.998 245.881 298.128 247.629 298.39 249.36L289.16 252.36L291.99 261.06C292.83 260.296 293.546 259.406 294.11 258.42L292.57 259.33C293.28 258.5 294.94 257.5 294.41 257.11C293.68 258.11 293.77 257.47 293.25 257.84V257.93C293.12 258.02 292.73 258.29 292.88 258.02C293.911 257.427 294.897 256.758 295.83 256.02C295.4 256.24 295.94 255.41 295.96 255.26C296.76 254.61 296.17 255.45 296.26 255.64C296.66 255.27 297.54 254.91 297.62 254.35C297.95 253.61 296.73 254.8 296.38 254.79L298.8 253H298.68C299.003 252.864 299.281 252.638 299.48 252.35C299.48 251.98 299 252.44 298.71 252.81C299.6 251.43 301.23 251.36 301.71 249.9L301.33 250.14C301.48 249.95 301.6 249.87 301.72 249.86L302.49 249.37C302.49 249.28 302.49 249.09 302.41 249.18L303.17 248.73C304.49 247.73 303.17 248.07 303.45 247.6L303.39 247.66C303.69 247.25 303.81 246.84 303.52 247.05L304.95 246.05C304.79 246.05 304.67 246.05 304.63 245.95L304.95 246.05C305.72 245.87 307.57 244.15 308.08 244.71C308.37 244.34 308.52 243.99 308.3 244.05L308.24 244.11C308.096 244.265 307.935 244.403 307.76 244.52L308.24 244.11C308.24 244.11 308.24 244.11 308.29 244.05C309.23 243.19 307.67 243.86 309.2 242.48C309.1 242.38 308.96 242.57 308.7 242.75C309.07 242.36 309.26 242.24 309.38 242.23C309.342 242.189 309.313 242.139 309.296 242.086C309.279 242.032 309.273 241.976 309.28 241.92C309.49 242.11 310.05 241.46 310.34 241.09L309.49 241.27C310.018 241.077 310.475 240.728 310.8 240.27L310.19 240.44C310.7 240.01 310.84 240.08 310.97 240.12C311.829 235.356 314.19 230.992 317.707 227.667C321.225 224.341 325.715 222.229 330.52 221.64C330.758 221.45 330.918 221.18 330.97 220.88C331.18 220.97 330.97 221.28 330.66 221.63C330.86 221.63 331.06 221.61 331.26 221.57H331.11C332.52 220.75 331.43 221.01 332.75 219.91C332.75 220 332.7 220.29 332.98 220.01C333.98 219.01 332.79 219.63 333.36 218.89C335.11 218.17 333.61 217.96 335.43 216.68H335.2C336.63 215.68 337.73 213.68 338.97 212.26C338.97 212.44 337.89 213.35 338.33 213.55L340 212C340 211.82 340.71 211.08 340.09 211.35C339.87 211.532 339.681 211.748 339.53 211.99L339.59 211.61C341.3 210.25 339.98 212.19 340.29 212.47C341 211.55 341.59 211.56 342.14 211.01C342.14 210.44 340.74 211.74 341.14 210.71C341.321 210.422 341.547 210.166 341.81 209.95C340.89 209.73 339.97 209.53 339.03 209.37V199.67H327.27V209.4C323.867 209.978 320.568 211.056 317.48 212.6L311.78 204.75L302.25 211.68L308 219.5C305.604 221.973 303.583 224.782 302 227.84L292.78 224.84L289.13 236.04L298.39 239.04C298.137 240.725 298.007 242.426 298 244.13ZM292.25 259.13L291.42 259.21C292 258.74 292.33 259 292.2 259.12L292.25 259.13ZM294.51 256.36L294 256.63L295.33 255.54L294.51 256.36ZM297.72 253.52V253.33L298.64 252.6L297.72 253.52Z" fill="black"/>
<path opacity="0.2" d="M350.581 261.78C350.381 261.65 350.001 262.16 349.951 261.78L350.101 261.55C349.881 261.89 349.541 261.32 349.351 261.95L349.581 261.67C349.371 262.09 350.291 261.6 349.921 262.18C349.771 262.44 350.441 262.08 350.581 261.78Z" fill="black"/>
<path opacity="0.2" d="M361.69 247.75H361.78C361.783 247.656 361.807 247.564 361.85 247.48C361.75 247.52 361.66 247.57 361.69 247.75Z" fill="black"/>
<path opacity="0.2" d="M364.851 245.29L365.101 245.16C365.231 244.78 364.801 244.94 364.561 245.16C364.661 245.17 364.671 245.31 364.851 245.29Z" fill="black"/>
<path opacity="0.2" d="M360.7 251.78C361.11 251.49 361.44 251.92 361.63 251.36C361.31 251.61 361 251.11 360.7 251.78Z" fill="black"/>
<path opacity="0.2" d="M361.16 247.12C361.38 247.12 361.91 246.86 362.05 247.12C362.33 246.66 362.62 246.19 361.94 246.3L361.64 246.7C361.8 246.53 361.81 246.61 361.9 246.63C361.77 247 361.41 247 361.16 247.12Z" fill="black"/>
<path opacity="0.2" d="M362.08 247.38C362.097 247.34 362.105 247.298 362.105 247.255C362.105 247.212 362.097 247.169 362.08 247.13L361.88 247.5C362 247.48 362.05 247.47 362.08 247.38Z" fill="black"/>
<path opacity="0.2" d="M350 262.71C349.4 262.6 349.64 263.08 349.2 263.23C349.48 263.19 350 263.3 350 262.71Z" fill="black"/>
<path opacity="0.2" d="M355.001 205.08C354.995 205.047 354.995 205.013 355.001 204.98L354.811 204.84C354.321 205.23 353.661 205.55 353.811 205.99L355.001 205.08Z" fill="black"/>
<path opacity="0.2" d="M299.12 260.62H299.2L300.72 259.25L299.12 260.62Z" fill="black"/>
<path opacity="0.2" d="M298 261.82L299 261.09C298.333 261.196 297.732 261.554 297.32 262.09L298.24 261.79L298.59 261.58L298 261.82Z" fill="black"/>
<path opacity="0.2" d="M340.33 222.6L340.49 222.65C340.699 222.6 340.89 222.494 341.042 222.342C341.194 222.19 341.3 221.999 341.35 221.79C340.7 221.84 340.7 222.25 340.33 222.6Z" fill="black"/>
<path opacity="0.2" d="M342.49 220.3C342.27 220.21 341.57 221.03 341.63 220.57L341.92 220.2C341.49 220.76 341.23 220.1 340.75 221.02L341.16 220.57C340.72 221.21 342.16 220.2 341.44 221.13C341.15 221.5 342.19 220.77 342.49 220.3Z" fill="black"/>
<path opacity="0.2" d="M304.391 258.19C304.517 258.076 304.622 257.941 304.701 257.79L304.391 258.19Z" fill="black"/>
<path opacity="0.2" d="M304.761 257.17C303.953 257.354 303.188 257.693 302.511 258.17L302.561 258.64C302.851 258.27 302.511 258.17 303.281 257.71C303.351 258 304.001 258.19 304.761 257.17Z" fill="black"/>
<path opacity="0.2" d="M354.57 204.61L354.23 205.08C354.4 204.969 354.564 204.849 354.72 204.72L354.57 204.61Z" fill="black"/>
<path opacity="0.2" d="M304.7 257.79L305.7 256.53C304.69 256.74 305 257.22 304.7 257.79Z" fill="black"/>
<path opacity="0.2" d="M347.94 212.07C347.79 212.16 347.67 212.21 347.61 212.15V212.72C347.774 212.512 347.974 212.336 348.2 212.2L347.94 212.07Z" fill="black"/>
<path opacity="0.2" d="M345.12 214.92C345.12 214.64 345.83 214 346.39 213.35C345.8 213.34 344.89 214.82 345.12 214.92Z" fill="black"/>
<path opacity="0.2" d="M299.581 260.64L299.201 260.62L299.101 260.72L299.581 260.64Z" fill="black"/>
</svg>
